<svg width="120" height="120" viewBox="0 0 120 120" fill="none" xmlns="http://www.w3.org/2000/svg">
<rect width="120" height="120" rx="28" fill="white"/>
<g filter="url(#filter0_ii_4207_17628)">
<path fill-rule="evenodd" clip-rule="evenodd" d="M70.4362 29.3265C71.5728 29.3265 72.7576 29.6079 73.9905 30.1776C75.6351 30.9663 76.8491 32.2325 77.6419 33.9689L79.2035 37.4758C79.6774 38.5192 80.4034 39.4966 81.3846 40.4148C82.3324 41.3297 83.4546 42.1031 84.7505 42.7362C86.394 43.5249 88.0041 43.9209 89.5813 43.9209C90.4374 43.9209 91.2741 43.81 92.096 43.5882L95.8873 42.6404C96.453 42.4848 97.0387 42.4034 97.6377 42.4034C98.8414 42.4034 100.104 42.7218 101.429 43.3512C103.388 44.2697 104.81 45.5796 105.694 47.2865L107.686 51.0296C108.667 52.8001 108.856 54.5839 108.257 56.3837C107.624 58.216 106.405 59.4008 104.606 59.938L100.626 61.1712C98.1306 61.9294 96.4238 63.5549 95.5051 66.0543C94.4322 68.8352 94.5281 71.6446 95.7902 74.488L97.923 79.2271C98.8708 81.3453 99.0784 83.6041 98.5419 86.0029C97.5941 88.0577 96.1091 89.6683 94.0834 90.8378L89.441 92.6376C88.3965 92.8927 87.3862 93.0186 86.4091 93.0186C84.9874 93.0186 83.5657 92.7335 82.144 92.1637C79.8662 90.7127 78.3042 88.8312 77.453 86.5253L75.5574 81.4078C74.6388 78.8791 74.624 76.6358 75.5093 74.6776C76.5196 72.4673 78.1783 71.0115 80.4853 70.3195L84.9389 68.8978C87.6565 68.0429 89.5187 66.3538 90.5291 63.8251C91.4769 61.3597 91.3518 58.7865 90.1519 56.1023L88.3048 52.0741C87.134 49.512 85.2869 47.6345 82.7578 46.4316C81.0851 45.6137 79.4264 45.2024 77.7817 45.2024C76.931 45.2317 76.0605 45.3579 75.1753 45.5796L70.9586 46.6241C70.17 46.8125 69.3966 46.9055 68.6376 46.9055C67.3076 46.9055 65.9826 46.5756 64.6575 45.9133C62.8537 45.0583 61.5915 43.6507 60.8663 41.6925L59.4882 37.9971C58.8254 36.1648 58.9365 34.5546 59.8218 33.1622C60.707 31.7737 61.9695 30.9226 63.613 30.6041C63.8985 30.5405 64.1647 30.4924 64.4206 30.4627L68.4924 29.6563C68.7775 29.5634 69.0145 29.5009 69.2033 29.4668C69.6146 29.3709 70.026 29.3265 70.4362 29.3265Z" fill="#00ACDD"/>
<path fill-rule="evenodd" clip-rule="evenodd" d="M49.6325 34.1043C50.8324 34.1043 52.0506 34.4038 53.2835 35.0076C55.0199 35.8255 56.2187 37.1695 56.8814 39.0358L58.2114 42.7786C59.1592 45.3036 60.9096 47.2181 63.4725 48.514C65.1122 49.3026 66.7898 49.6988 68.4921 49.6988C69.5032 49.7281 70.547 49.6021 71.6207 49.3177L75.8377 48.2285C76.505 48.0401 77.1677 47.9434 77.83 47.9434C79.1259 47.9775 80.4365 48.3063 81.7615 48.9394C83.8164 49.9169 85.2533 51.3241 86.0749 53.1564L87.8787 57.2328C88.7632 59.1284 88.7924 61.0537 87.9705 63.0126C87.1197 65.0041 85.6828 66.3148 83.6572 66.9479L79.2032 68.3214C76.2047 69.2067 74.0721 71.0246 72.8054 73.7714C72.1431 75.1931 71.7951 76.649 71.7659 78.1332C71.7318 79.6175 72.0172 81.2136 72.617 82.9168L74.4641 88.0853C75.2861 90.3923 75.2861 92.8688 74.4641 95.5238C72.9165 97.9888 71.0209 99.8363 68.7772 101.069L63.4725 103.106C62.4614 103.357 61.4468 103.487 60.4357 103.487C58.8252 103.487 57.2635 103.169 55.7448 102.539C53.2202 101.244 51.5907 99.2373 50.8658 96.519L49.347 90.8802C48.5588 88.0039 48.8731 85.5081 50.2948 83.3907C51.654 80.9282 53.5348 79.3332 55.9336 78.6071L60.9577 76.9929C64.2459 75.9521 66.5529 74.0565 67.8779 71.306C68.5736 69.8843 68.985 68.4474 69.1112 66.9964C69.203 65.5121 69.0142 64.1044 68.5403 62.7757L66.9301 58.4661C65.9823 55.8747 64.0715 53.8673 61.1947 52.4455C59.522 51.6237 57.8 51.2134 56.0302 51.2134C54.9566 51.2134 53.8491 51.3574 52.7129 51.6389L47.9738 52.8236C47.2144 53.0161 46.4554 53.109 45.7009 53.109C44.2792 53.109 42.8575 52.7603 41.4358 52.0683C39.3809 51.2464 38.0703 49.7613 37.4993 47.6106L36.3631 43.5824C35.8266 41.5312 36.2038 39.7912 37.4993 38.3694C38.6701 36.8218 40.0918 35.874 41.7645 35.526C42.05 35.4967 42.3203 35.4627 42.5724 35.433L47.1227 34.4852C47.4373 34.3896 47.7369 34.3119 48.0223 34.2482C48.5588 34.1527 49.096 34.1043 49.6325 34.1043Z" fill="#004166"/>
<path fill-rule="evenodd" clip-rule="evenodd" d="M43.1853 17.0002C44.452 17.0002 45.8403 17.2372 47.3587 17.7111C49.1243 18.877 50.2314 20.1251 50.6761 21.4538L51.8609 24.723C52.3973 26.208 52.2381 27.7257 51.387 29.2733C50.057 30.8212 48.4135 31.7842 46.4545 32.1653L42.0491 33.0645C39.0798 33.6647 36.7876 34.9898 35.1774 37.0446C33.5339 39.1298 33.06 41.4842 33.7557 44.1058L34.8438 48.1814C35.5111 50.7405 37.1841 52.6988 39.868 54.0579C41.6377 54.9128 43.63 55.3382 45.8404 55.3382C46.7882 55.3382 47.7511 55.2568 48.7323 55.1012L53.5196 53.8683C53.8634 53.7725 54.1671 53.6947 54.4192 53.6314C54.9849 53.4722 55.5706 53.3944 56.1696 53.3944C57.3734 53.3944 58.7136 53.6947 60.1979 54.2948C62.1276 55.4645 63.4375 56.9969 64.1343 58.8925L65.6959 63.2991C66.5179 65.5758 66.4553 67.6458 65.5075 69.5073C64.1192 71.781 62.3012 73.2512 60.0576 73.9136L55.0816 75.4793C54.1337 75.7648 53.2193 75.905 52.3348 75.905C50.8789 75.9392 49.4432 75.5723 48.0215 74.817C46.0288 73.5508 44.5445 71.8143 43.5675 69.604L42.3346 64.9578C41.5418 62.1143 39.7762 59.9959 37.0245 58.6074C35.0663 57.6263 33.0782 57.1383 31.0525 57.1383C29.9796 57.1383 28.8763 57.2824 27.7352 57.5638L22.4786 58.8925C21.5308 59.1154 20.583 59.2224 19.6351 59.2224C18.2134 59.2224 16.8061 58.9562 15.4136 58.4186C13.3928 57.1231 12.2081 55.4796 11.8593 53.4911L11.1048 49.1293C10.756 46.9823 11.2784 45.101 12.6668 43.4905C14.2144 41.6586 16.1726 40.5031 18.5421 40.0292L23.5182 39.0369C26.7438 38.3705 29.1759 36.9972 30.8156 34.912C32.4307 32.8573 32.919 30.681 32.2855 28.374L31.3376 24.8641C30.9274 23.3494 31.3236 21.7686 32.5224 20.1251C33.8183 18.8958 35.4295 18.1224 37.3585 17.8039L41.5267 17.1405C42.0643 17.0447 42.6197 17.0002 43.1853 17.0002Z" fill="#96BC33"/>
</g>
<defs>
<filter id="filter0_ii_4207_17628" x="11" y="12" width="97.5986" height="95.4873" filterUnits="userSpaceOnUse" color-interpolation-filters="sRGB">
<feFlood flood-opacity="0" result="BackgroundImageFix"/>
<feBlend mode="normal" in="SourceGraphic" in2="BackgroundImageFix" result="shape"/>
<feColorMatrix in="SourceAlpha" type="matrix" values="0 0 0 0 0 0 0 0 0 0 0 0 0 0 0 0 0 0 127 0" result="hardAlpha"/>
<feOffset dy="4"/>
<feGaussianBlur stdDeviation="7"/>
<feComposite in2="hardAlpha" operator="arithmetic" k2="-1" k3="1"/>
<feColorMatrix type="matrix" values="0 0 0 0 1 0 0 0 0 1 0 0 0 0 1 0 0 0 0.25 0"/>
<feBlend mode="normal" in2="shape" result="effect1_innerShadow_4207_17628"/>
<feColorMatrix in="SourceAlpha" type="matrix" values="0 0 0 0 0 0 0 0 0 0 0 0 0 0 0 0 0 0 127 0" result="hardAlpha"/>
<feOffset dy="-5"/>
<feGaussianBlur stdDeviation="27"/>
<feComposite in2="hardAlpha" operator="arithmetic" k2="-1" k3="1"/>
<feColorMatrix type="matrix" values="0 0 0 0 0.2 0 0 0 0 0.2 0 0 0 0 0.2 0 0 0 0.25 0"/>
<feBlend mode="normal" in2="effect1_innerShadow_4207_17628" result="effect2_innerShadow_4207_17628"/>
</filter>
</defs>
</svg>
