<svg width="76" height="76" viewBox="0 0 76 76" fill="none" xmlns="http://www.w3.org/2000/svg">
<rect width="76" height="76" rx="17" fill="white"/>
<g filter="url(#filter0_ii_4207_17590)">
<path fill-rule="evenodd" clip-rule="evenodd" d="M44.7274 18.804C45.4464 18.804 46.1958 18.9819 46.9757 19.3423C48.0159 19.8412 48.7838 20.6421 49.2853 21.7404L50.273 23.9587C50.5728 24.6186 51.032 25.2369 51.6527 25.8177C52.2522 26.3964 52.962 26.8856 53.7817 27.286C54.8213 27.7849 55.8397 28.0354 56.8374 28.0354C57.3788 28.0354 57.9081 27.9652 58.428 27.8249L60.8261 27.2254C61.1839 27.127 61.5544 27.0755 61.9333 27.0755C62.6947 27.0755 63.4933 27.2769 64.3314 27.6751C65.5706 28.2561 66.4699 29.0846 67.0293 30.1642L68.2895 32.5319C68.91 33.6518 69.0293 34.7801 68.6504 35.9185C68.2499 37.0775 67.4789 37.8269 66.341 38.1667L63.8236 38.9468C62.2451 39.4264 61.1654 40.4545 60.5844 42.0355C59.9057 43.7945 59.9664 45.5715 60.7647 47.3701L62.1138 50.3677C62.7133 51.7076 62.8446 53.1363 62.5053 54.6537C61.9057 55.9534 60.9664 56.9722 59.6851 57.7119L56.7486 58.8504C56.0879 59.0117 55.4489 59.0913 54.8309 59.0913C53.9316 59.0913 53.0323 58.911 52.133 58.5506C50.6922 57.6328 49.7042 56.4427 49.1658 54.9841L47.9668 51.7471C47.3857 50.1477 47.3764 48.7287 47.9363 47.49C48.5754 46.0919 49.6246 45.1711 51.0838 44.7334L53.9009 43.8341C55.6198 43.2933 56.7978 42.225 57.4369 40.6255C58.0364 39.066 57.9573 37.4384 57.1983 35.7405L56.0299 33.1926C55.2894 31.572 54.121 30.3844 52.5213 29.6235C51.4632 29.1062 50.414 28.846 49.3737 28.846C48.8356 28.8645 48.285 28.9444 47.7251 29.0846L45.0579 29.7453C44.5591 29.8645 44.0699 29.9233 43.5898 29.9233C42.7485 29.9233 41.9104 29.7146 41.0723 29.2956C39.9312 28.7549 39.1329 27.8645 38.6742 26.6259L37.8024 24.2884C37.3833 23.1294 37.4535 22.1109 38.0135 21.2302C38.5734 20.3519 39.372 19.8136 40.4116 19.6121C40.5922 19.5719 40.7605 19.5414 40.9224 19.5227L43.4979 19.0126C43.6783 18.9538 43.8281 18.9143 43.9476 18.8927C44.2078 18.8321 44.468 18.804 44.7274 18.804Z" fill="#00ACDD"/>
<path fill-rule="evenodd" clip-rule="evenodd" d="M31.5632 21.8219C32.3222 21.8219 33.0927 22.0113 33.8726 22.3933C34.9709 22.9106 35.7292 23.7608 36.1484 24.9413L36.9896 27.3087C37.5892 28.9059 38.6964 30.1169 40.3175 30.9365C41.3547 31.4353 42.4158 31.6859 43.4926 31.6859C44.1321 31.7045 44.7923 31.6248 45.4715 31.4449L48.1389 30.756C48.5609 30.6368 48.9801 30.5756 49.3991 30.5756C50.2187 30.5972 51.0478 30.8052 51.8859 31.2056C53.1857 31.8239 54.0946 32.714 54.6142 33.873L55.7552 36.4514C56.3147 37.6505 56.3332 38.8683 55.8133 40.1074C55.2751 41.3671 54.3663 42.1962 53.085 42.5966L50.2677 43.4654C48.371 44.0254 47.0221 45.1753 46.2209 46.9127C45.8019 47.812 45.5818 48.7328 45.5633 49.6717C45.5417 50.6105 45.7223 51.6201 46.1017 52.6974L47.27 55.9667C47.7899 57.4259 47.7899 58.9924 47.27 60.6718C46.2911 62.231 45.0921 63.3996 43.6729 64.1795L40.3175 65.468C39.6779 65.6268 39.0362 65.709 38.3966 65.709C37.3779 65.709 36.3901 65.5076 35.4294 65.1095C33.8325 64.2898 32.8018 63.0207 32.3433 61.3013L31.3826 57.7346C30.8841 55.9152 31.0829 54.3365 31.9822 52.9972C32.8419 51.4396 34.0316 50.4307 35.5488 49.9715L38.7268 48.9504C40.8067 48.2921 42.2659 47.093 43.1041 45.3533C43.5441 44.454 43.8043 43.5451 43.8842 42.6273C43.9422 41.6884 43.8228 40.798 43.523 39.9575L42.5045 37.2315C41.905 35.5924 40.6964 34.3226 38.8767 33.4234C37.8187 32.9035 36.7294 32.644 35.61 32.644C34.9309 32.644 34.2304 32.7351 33.5117 32.9131L30.514 33.6625C30.0337 33.7843 29.5536 33.843 29.0764 33.843C28.1771 33.843 27.2778 33.6225 26.3785 33.1847C25.0787 32.6648 24.2497 31.7255 23.8886 30.3651L23.1699 27.8171C22.8305 26.5197 23.0691 25.419 23.8886 24.5198C24.6291 23.5409 25.5284 22.9413 26.5864 22.7212C26.767 22.7027 26.938 22.6811 27.0975 22.6624L29.9757 22.0628C30.1747 22.0024 30.3642 21.9532 30.5447 21.913C30.8841 21.8525 31.2239 21.8219 31.5632 21.8219Z" fill="#004166"/>
<path fill-rule="evenodd" clip-rule="evenodd" d="M27.4872 11.0079C28.2884 11.0079 29.1666 11.1578 30.127 11.4575C31.2438 12.195 31.9441 12.9845 32.2254 13.8249L32.9748 15.8928C33.3141 16.8322 33.2134 17.7921 32.675 18.771C31.8338 19.7502 30.7942 20.3593 29.5551 20.6003L26.7685 21.1691C24.8903 21.5487 23.4404 22.3869 22.4219 23.6866C21.3824 25.0056 21.0826 26.4948 21.5226 28.1531L22.2109 30.7311C22.633 32.3498 23.6912 33.5885 25.3889 34.4481C26.5083 34.9889 27.7685 35.258 29.1666 35.258C29.7661 35.258 30.3752 35.2065 30.9959 35.1081L34.0239 34.3282C34.2414 34.2676 34.4335 34.2184 34.593 34.1783C34.9508 34.0777 35.3213 34.0285 35.7002 34.0285C36.4616 34.0285 37.3093 34.2184 38.2482 34.598C39.4688 35.3378 40.2974 36.3071 40.7381 37.5062L41.7259 40.2935C42.2458 41.7336 42.2062 43.0429 41.6067 44.2204C40.7285 45.6586 39.5787 46.5885 38.1595 47.0075L35.012 47.9979C34.4124 48.1784 33.834 48.2672 33.2745 48.2672C32.3537 48.2888 31.4455 48.0567 30.5462 47.5789C29.2858 46.778 28.3469 45.6796 27.7289 44.2815L26.9491 41.3427C26.4476 39.5441 25.3308 38.2041 23.5903 37.3258C22.3517 36.7053 21.0941 36.3966 19.8128 36.3966C19.1341 36.3966 18.4363 36.4877 17.7145 36.6657L14.3895 37.5062C13.79 37.6472 13.1904 37.7149 12.5909 37.7149C11.6916 37.7149 10.8015 37.5465 9.92064 37.2064C8.64245 36.387 7.89306 35.3474 7.67245 34.0896L7.19517 31.3306C6.97456 29.9725 7.30501 28.7826 8.18322 27.7639C9.16212 26.6051 10.4007 25.8743 11.8996 25.5745L15.0471 24.9469C17.0874 24.5253 18.6257 23.6567 19.6629 22.3377C20.6845 21.038 20.9934 19.6614 20.5927 18.2022L19.9931 15.9821C19.7337 15.024 19.9843 14.024 20.7425 12.9845C21.5622 12.2069 22.5814 11.7177 23.8016 11.5163L26.438 11.0966C26.7781 11.036 27.1294 11.0079 27.4872 11.0079Z" fill="#96BC33"/>
</g>
<defs>
<filter id="filter0_ii_4207_17590" x="7.12891" y="6.00781" width="61.7373" height="63.7012" filterUnits="userSpaceOnUse" color-interpolation-filters="sRGB">
<feFlood flood-opacity="0" result="BackgroundImageFix"/>
<feBlend mode="normal" in="SourceGraphic" in2="BackgroundImageFix" result="shape"/>
<feColorMatrix in="SourceAlpha" type="matrix" values="0 0 0 0 0 0 0 0 0 0 0 0 0 0 0 0 0 0 127 0" result="hardAlpha"/>
<feOffset dy="4"/>
<feGaussianBlur stdDeviation="7"/>
<feComposite in2="hardAlpha" operator="arithmetic" k2="-1" k3="1"/>
<feColorMatrix type="matrix" values="0 0 0 0 1 0 0 0 0 1 0 0 0 0 1 0 0 0 0.25 0"/>
<feBlend mode="normal" in2="shape" result="effect1_innerShadow_4207_17590"/>
<feColorMatrix in="SourceAlpha" type="matrix" values="0 0 0 0 0 0 0 0 0 0 0 0 0 0 0 0 0 0 127 0" result="hardAlpha"/>
<feOffset dy="-5"/>
<feGaussianBlur stdDeviation="27"/>
<feComposite in2="hardAlpha" operator="arithmetic" k2="-1" k3="1"/>
<feColorMatrix type="matrix" values="0 0 0 0 0.2 0 0 0 0 0.2 0 0 0 0 0.2 0 0 0 0.25 0"/>
<feBlend mode="normal" in2="effect1_innerShadow_4207_17590" result="effect2_innerShadow_4207_17590"/>
</filter>
</defs>
</svg>
