<svg width="375" height="430" viewBox="0 0 375 430" fill="none" xmlns="http://www.w3.org/2000/svg">
<rect y="-17" width="385" height="447" fill="url(#paint0_linear_3896_16148)"/>
<ellipse cx="20.0756" cy="95.7603" rx="2.79536" ry="2.76029" fill="#F8F8FB"/>
<ellipse cx="66.8481" cy="95.7603" rx="2.79536" ry="2.76029" fill="#F8F8FB"/>
<ellipse cx="20.0756" cy="142.331" rx="2.79536" ry="2.76029" fill="#F8F8FB"/>
<ellipse cx="66.8481" cy="142.331" rx="2.79536" ry="2.76029" fill="#F8F8FB"/>
<ellipse cx="20.0756" cy="111.284" rx="2.79536" ry="2.76029" fill="#F8F8FB"/>
<ellipse cx="66.8481" cy="111.284" rx="2.79536" ry="2.76029" fill="#F8F8FB"/>
<ellipse cx="20.0756" cy="157.854" rx="2.79536" ry="2.76029" fill="#F8F8FB"/>
<ellipse cx="66.8481" cy="157.854" rx="2.79536" ry="2.76029" fill="#F8F8FB"/>
<ellipse cx="20.0756" cy="126.807" rx="2.79536" ry="2.76029" fill="#F8F8FB"/>
<ellipse cx="66.8481" cy="126.807" rx="2.79536" ry="2.76029" fill="#F8F8FB"/>
<ellipse cx="20.0756" cy="173.377" rx="2.79536" ry="2.76029" fill="#F8F8FB"/>
<ellipse cx="66.8481" cy="173.377" rx="2.79536" ry="2.76029" fill="#F8F8FB"/>
<ellipse cx="35.6665" cy="95.7603" rx="2.79536" ry="2.76029" fill="#F8F8FB"/>
<ellipse cx="82.4389" cy="95.7603" rx="2.79536" ry="2.76029" fill="#F8F8FB"/>
<ellipse cx="35.6665" cy="142.331" rx="2.79536" ry="2.76029" fill="#F8F8FB"/>
<ellipse cx="82.4389" cy="142.331" rx="2.79536" ry="2.76029" fill="#F8F8FB"/>
<ellipse cx="35.6665" cy="111.284" rx="2.79536" ry="2.76029" fill="#F8F8FB"/>
<ellipse cx="82.4389" cy="111.284" rx="2.79536" ry="2.76029" fill="#F8F8FB"/>
<ellipse cx="35.6665" cy="157.854" rx="2.79536" ry="2.76029" fill="#F8F8FB"/>
<ellipse cx="82.4389" cy="157.854" rx="2.79536" ry="2.76029" fill="#F8F8FB"/>
<ellipse cx="35.6665" cy="126.807" rx="2.79536" ry="2.76029" fill="#F8F8FB"/>
<ellipse cx="82.4389" cy="126.807" rx="2.79536" ry="2.76029" fill="#F8F8FB"/>
<ellipse cx="35.6665" cy="173.377" rx="2.79536" ry="2.76029" fill="#F8F8FB"/>
<ellipse cx="82.4389" cy="173.377" rx="2.79536" ry="2.76029" fill="#F8F8FB"/>
<ellipse cx="51.2573" cy="95.7603" rx="2.79536" ry="2.76029" fill="#F8F8FB"/>
<ellipse cx="98.0297" cy="95.7603" rx="2.79536" ry="2.76029" fill="#F8F8FB"/>
<ellipse cx="51.2573" cy="142.331" rx="2.79536" ry="2.76029" fill="#F8F8FB"/>
<ellipse cx="98.0297" cy="142.331" rx="2.79536" ry="2.76029" fill="#F8F8FB"/>
<ellipse cx="51.2573" cy="111.284" rx="2.79536" ry="2.76029" fill="#F8F8FB"/>
<ellipse cx="98.0297" cy="111.284" rx="2.79536" ry="2.76029" fill="#F8F8FB"/>
<ellipse cx="51.2573" cy="157.854" rx="2.79536" ry="2.76029" fill="#F8F8FB"/>
<ellipse cx="98.0297" cy="157.854" rx="2.79536" ry="2.76029" fill="#F8F8FB"/>
<ellipse cx="51.2573" cy="126.807" rx="2.79536" ry="2.76029" fill="#F8F8FB"/>
<ellipse cx="98.0297" cy="126.807" rx="2.79536" ry="2.76029" fill="#F8F8FB"/>
<ellipse cx="51.2573" cy="173.377" rx="2.79536" ry="2.76029" fill="#F8F8FB"/>
<ellipse cx="98.0297" cy="173.377" rx="2.79536" ry="2.76029" fill="#F8F8FB"/>
<path d="M171.045 223.06V226H158.565V204.4H162.075V223.06H171.045ZM179.141 210.46C180.271 210.46 181.291 210.645 182.201 211.015C183.121 211.385 183.901 211.91 184.541 212.59C185.191 213.27 185.691 214.095 186.041 215.065C186.391 216.035 186.566 217.125 186.566 218.335C186.566 219.545 186.391 220.635 186.041 221.605C185.691 222.575 185.191 223.405 184.541 224.095C183.901 224.775 183.121 225.3 182.201 225.67C181.291 226.04 180.271 226.225 179.141 226.225C178.001 226.225 176.971 226.04 176.051 225.67C175.141 225.3 174.361 224.775 173.711 224.095C173.061 223.405 172.561 222.575 172.211 221.605C171.861 220.635 171.686 219.545 171.686 218.335C171.686 217.125 171.861 216.035 172.211 215.065C172.561 214.095 173.061 213.27 173.711 212.59C174.361 211.91 175.141 211.385 176.051 211.015C176.971 210.645 178.001 210.46 179.141 210.46ZM179.141 223.705C180.521 223.705 181.546 223.245 182.216 222.325C182.896 221.395 183.236 220.07 183.236 218.35C183.236 216.63 182.896 215.305 182.216 214.375C181.546 213.435 180.521 212.965 179.141 212.965C177.741 212.965 176.701 213.435 176.021 214.375C175.341 215.305 175.001 216.63 175.001 218.35C175.001 220.07 175.341 221.395 176.021 222.325C176.701 223.245 177.741 223.705 179.141 223.705ZM195.007 218.215C196.007 218.215 196.757 217.96 197.257 217.45C197.757 216.94 198.007 216.275 198.007 215.455C198.007 214.615 197.757 213.95 197.257 213.46C196.757 212.97 196.007 212.725 195.007 212.725C194.017 212.725 193.267 212.97 192.757 213.46C192.257 213.95 192.007 214.615 192.007 215.455C192.007 215.855 192.072 216.225 192.202 216.565C192.332 216.905 192.522 217.2 192.772 217.45C193.022 217.69 193.332 217.88 193.702 218.02C194.082 218.15 194.517 218.215 195.007 218.215ZM199.492 226.75C199.492 226.41 199.392 226.14 199.192 225.94C199.002 225.73 198.742 225.57 198.412 225.46C198.082 225.34 197.697 225.255 197.257 225.205C196.817 225.145 196.347 225.105 195.847 225.085C195.357 225.055 194.852 225.03 194.332 225.01C193.822 224.98 193.327 224.93 192.847 224.86C192.367 225.11 191.972 225.41 191.662 225.76C191.362 226.11 191.212 226.515 191.212 226.975C191.212 227.275 191.287 227.555 191.437 227.815C191.597 228.075 191.837 228.3 192.157 228.49C192.487 228.68 192.902 228.83 193.402 228.94C193.912 229.05 194.522 229.105 195.232 229.105C196.652 229.105 197.717 228.885 198.427 228.445C199.137 228.005 199.492 227.44 199.492 226.75ZM202.732 211.255V212.455C202.732 212.855 202.492 213.1 202.012 213.19L200.482 213.445C200.742 214.025 200.872 214.67 200.872 215.38C200.872 216.13 200.722 216.81 200.422 217.42C200.132 218.03 199.727 218.55 199.207 218.98C198.687 219.41 198.067 219.74 197.347 219.97C196.627 220.2 195.847 220.315 195.007 220.315C194.687 220.315 194.372 220.3 194.062 220.27C193.762 220.23 193.467 220.18 193.177 220.12C192.887 220.29 192.672 220.47 192.532 220.66C192.392 220.85 192.322 221.045 192.322 221.245C192.322 221.575 192.467 221.82 192.757 221.98C193.047 222.14 193.427 222.255 193.897 222.325C194.377 222.395 194.922 222.44 195.532 222.46C196.142 222.48 196.762 222.515 197.392 222.565C198.022 222.615 198.642 222.7 199.252 222.82C199.862 222.93 200.402 223.12 200.872 223.39C201.352 223.65 201.737 224.005 202.027 224.455C202.317 224.905 202.462 225.49 202.462 226.21C202.462 226.87 202.297 227.515 201.967 228.145C201.637 228.775 201.157 229.335 200.527 229.825C199.907 230.315 199.147 230.705 198.247 230.995C197.347 231.295 196.322 231.445 195.172 231.445C194.032 231.445 193.037 231.335 192.187 231.115C191.347 230.895 190.642 230.595 190.072 230.215C189.512 229.845 189.092 229.415 188.812 228.925C188.542 228.435 188.407 227.925 188.407 227.395C188.407 226.675 188.632 226.06 189.082 225.55C189.542 225.04 190.162 224.64 190.942 224.35C190.522 224.15 190.182 223.875 189.922 223.525C189.672 223.175 189.547 222.715 189.547 222.145C189.547 221.695 189.712 221.225 190.042 220.735C190.372 220.245 190.867 219.83 191.527 219.49C190.767 219.07 190.167 218.515 189.727 217.825C189.287 217.125 189.067 216.31 189.067 215.38C189.067 214.62 189.212 213.935 189.502 213.325C189.802 212.715 190.217 212.195 190.747 211.765C191.277 211.335 191.902 211.005 192.622 210.775C193.352 210.545 194.147 210.43 195.007 210.43C196.327 210.43 197.477 210.705 198.457 211.255H202.732ZM208.639 210.7V226H205.414V210.7H208.639ZM209.179 206.08C209.179 206.37 209.119 206.645 208.999 206.905C208.889 207.165 208.734 207.395 208.534 207.595C208.334 207.785 208.099 207.94 207.829 208.06C207.569 208.17 207.289 208.225 206.989 208.225C206.699 208.225 206.424 208.17 206.164 208.06C205.914 207.94 205.694 207.785 205.504 207.595C205.314 207.395 205.159 207.165 205.039 206.905C204.929 206.645 204.874 206.37 204.874 206.08C204.874 205.78 204.929 205.5 205.039 205.24C205.159 204.98 205.314 204.755 205.504 204.565C205.694 204.365 205.914 204.21 206.164 204.1C206.424 203.98 206.699 203.92 206.989 203.92C207.289 203.92 207.569 203.98 207.829 204.1C208.099 204.21 208.334 204.365 208.534 204.565C208.734 204.755 208.889 204.98 208.999 205.24C209.119 205.5 209.179 205.78 209.179 206.08ZM215.707 212.725C216.037 212.385 216.377 212.08 216.727 211.81C217.087 211.53 217.467 211.29 217.867 211.09C218.267 210.89 218.692 210.735 219.142 210.625C219.592 210.515 220.082 210.46 220.612 210.46C221.452 210.46 222.187 210.6 222.817 210.88C223.457 211.16 223.992 211.555 224.422 212.065C224.862 212.575 225.192 213.19 225.412 213.91C225.632 214.62 225.742 215.405 225.742 216.265V226H222.532V216.265C222.532 215.235 222.292 214.435 221.812 213.865C221.342 213.295 220.622 213.01 219.652 213.01C218.932 213.01 218.262 213.175 217.642 213.505C217.032 213.835 216.457 214.285 215.917 214.855V226H212.692V210.7H214.642C215.082 210.7 215.362 210.905 215.482 211.315L215.707 212.725Z" fill="#F8F8FB"/>
<defs>
<linearGradient id="paint0_linear_3896_16148" x1="274.617" y1="323.488" x2="399.439" y2="914.269" gradientUnits="userSpaceOnUse">
<stop stop-color="#004166"/>
<stop offset="1" stop-color="#004166" stop-opacity="0"/>
</linearGradient>
</defs>
</svg>
