<svg width="40" height="40" viewBox="0 0 40 40" fill="none" xmlns="http://www.w3.org/2000/svg">
<rect width="40" height="40" rx="9" fill="white"/>
<g filter="url(#filter0_ii_4207_17597)">
<path fill-rule="evenodd" clip-rule="evenodd" d="M23.4154 10.0381C23.7867 10.0381 24.1737 10.1301 24.5764 10.3162C25.1137 10.5738 25.5102 10.9874 25.7692 11.5546L26.2793 12.7001C26.4341 13.0409 26.6712 13.3602 26.9917 13.6602C27.3013 13.959 27.6679 14.2117 28.0912 14.4184C28.6281 14.6761 29.154 14.8054 29.6692 14.8054C29.9488 14.8054 30.2222 14.7692 30.4907 14.6967L31.7291 14.3871C31.9139 14.3363 32.1052 14.3097 32.3009 14.3097C32.6941 14.3097 33.1065 14.4137 33.5393 14.6193C34.1792 14.9194 34.6436 15.3473 34.9325 15.9048L35.5833 17.1275C35.9037 17.7058 35.9653 18.2885 35.7697 18.8764C35.5629 19.4749 35.1647 19.862 34.5771 20.0374L33.277 20.4403C32.4619 20.688 31.9043 21.2189 31.6042 22.0354C31.2538 22.9437 31.2851 23.8614 31.6974 24.7902L32.394 26.3383C32.7037 27.0302 32.7715 27.768 32.5962 28.5516C32.2866 29.2228 31.8015 29.7489 31.1398 30.1309L29.6234 30.7188C29.2822 30.8021 28.9522 30.8433 28.633 30.8433C28.1686 30.8433 27.7042 30.7501 27.2398 30.564C26.4958 30.0901 25.9855 29.4755 25.7075 28.7222L25.0883 27.0506C24.7882 26.2246 24.7834 25.4918 25.0726 24.8521C25.4026 24.1301 25.9444 23.6546 26.698 23.4286L28.1528 22.9642C29.0405 22.6849 29.6488 22.1332 29.9788 21.3072C30.2884 20.5018 30.2476 19.6613 29.8556 18.7845L29.2522 17.4687C28.8698 16.6318 28.2664 16.0185 27.4403 15.6256C26.8939 15.3584 26.3521 15.224 25.8149 15.224C25.537 15.2336 25.2526 15.2748 24.9635 15.3473L23.5861 15.6884C23.3285 15.75 23.0759 15.7804 22.8279 15.7804C22.3935 15.7804 21.9607 15.6726 21.5278 15.4562C20.9386 15.177 20.5263 14.7172 20.2894 14.0775L19.8392 12.8704C19.6228 12.2719 19.659 11.7459 19.9482 11.2911C20.2374 10.8375 20.6498 10.5595 21.1866 10.4555C21.2799 10.4347 21.3668 10.419 21.4504 10.4093L22.7805 10.1459C22.8736 10.1155 22.951 10.0951 23.0127 10.084C23.1471 10.0527 23.2814 10.0381 23.4154 10.0381Z" fill="#00ACDD"/>
<path fill-rule="evenodd" clip-rule="evenodd" d="M16.6167 11.5918C17.0086 11.5918 17.4066 11.6896 17.8093 11.8869C18.3765 12.154 18.7681 12.593 18.9845 13.2027L19.419 14.4252C19.7286 15.2501 20.3004 15.8754 21.1375 16.2987C21.6732 16.5563 22.2212 16.6857 22.7772 16.6857C23.1075 16.6953 23.4484 16.6542 23.7992 16.5613L25.1767 16.2055C25.3946 16.1439 25.6111 16.1124 25.8274 16.1124C26.2507 16.1235 26.6789 16.2309 27.1117 16.4377C27.7829 16.757 28.2523 17.2167 28.5206 17.8152L29.1099 19.1467C29.3988 19.7659 29.4083 20.3948 29.1399 21.0347C28.862 21.6853 28.3926 22.1134 27.7309 22.3202L26.276 22.7689C25.2965 23.058 24.5999 23.6519 24.1862 24.5491C23.9698 25.0135 23.8561 25.4891 23.8466 25.9739C23.8354 26.4588 23.9287 26.9801 24.1246 27.5365L24.728 29.2248C24.9965 29.9783 24.9965 30.7873 24.728 31.6546C24.2225 32.4598 23.6032 33.0633 22.8703 33.466L21.1375 34.1314C20.8073 34.2134 20.4759 34.2559 20.1456 34.2559C19.6195 34.2559 19.1094 34.1519 18.6133 33.9463C17.7886 33.523 17.2563 32.8676 17.0195 31.9796L16.5234 30.1377C16.266 29.1982 16.3686 28.3829 16.833 27.6913C17.277 26.8869 17.8914 26.3659 18.6749 26.1287L20.3161 25.6014C21.3902 25.2614 22.1438 24.6422 22.5766 23.7438C22.8038 23.2794 22.9382 22.81 22.9795 22.336C23.0094 21.8512 22.9477 21.3914 22.7929 20.9573L22.267 19.5496C21.9574 18.7031 21.3332 18.0474 20.3935 17.583C19.8471 17.3145 19.2846 17.1805 18.7065 17.1805C18.3558 17.1805 17.9941 17.2276 17.6229 17.3195L16.0749 17.7065C15.8268 17.7694 15.5789 17.7997 15.3324 17.7997C14.868 17.7997 14.4036 17.6858 13.9392 17.4598C13.268 17.1913 12.8399 16.7062 12.6534 16.0036L12.2822 14.6878C12.107 14.0178 12.2302 13.4494 12.6534 12.985C13.0358 12.4795 13.5002 12.1699 14.0466 12.0562C14.1398 12.0466 14.2281 12.0355 14.3105 12.0258L15.7968 11.7162C15.8996 11.685 15.9975 11.6596 16.0907 11.6388C16.266 11.6076 16.4414 11.5918 16.6167 11.5918Z" fill="#004166"/>
<path fill-rule="evenodd" clip-rule="evenodd" d="M14.5134 6.00011C14.9271 6.00011 15.3807 6.07751 15.8766 6.23231C16.4534 6.61316 16.815 7.02085 16.9603 7.45488L17.3473 8.52277C17.5225 9.00786 17.4705 9.5036 17.1925 10.0091C16.758 10.5148 16.2212 10.8293 15.5813 10.9538L14.1422 11.2476C13.1723 11.4436 12.4236 11.8765 11.8976 12.5476C11.3607 13.2288 11.2059 13.9978 11.4332 14.8542L11.7886 16.1855C12.0066 17.0214 12.5531 17.6611 13.4298 18.1051C14.0079 18.3843 14.6587 18.5233 15.3807 18.5233C15.6903 18.5233 16.0048 18.4967 16.3253 18.4459L17.8891 18.0431C18.0014 18.0118 18.1006 17.9864 18.183 17.9657C18.3677 17.9138 18.5591 17.8883 18.7547 17.8883C19.1479 17.8883 19.5857 17.9864 20.0706 18.1825C20.7009 18.5645 21.1288 19.0651 21.3564 19.6843L21.8665 21.1237C22.135 21.8674 22.1146 22.5436 21.805 23.1516C21.3515 23.8944 20.7576 24.3746 20.0247 24.591L18.3993 25.1024C18.0897 25.1957 17.791 25.2415 17.5021 25.2415C17.0265 25.2526 16.5575 25.1328 16.0931 24.886C15.4422 24.4724 14.9574 23.9052 14.6382 23.1832L14.2355 21.6655C13.9765 20.7367 13.3998 20.0447 12.501 19.5912C11.8613 19.2707 11.2119 19.1113 10.5502 19.1113C10.1997 19.1113 9.83934 19.1583 9.46657 19.2503L7.7495 19.6843C7.4399 19.7571 7.13029 19.7921 6.82069 19.7921C6.35628 19.7921 5.89657 19.7051 5.4417 19.5295C4.78162 19.1063 4.39462 18.5695 4.2807 17.9199L4.03422 16.4951C3.92029 15.7938 4.09094 15.1793 4.54447 14.6532C5.04999 14.0548 5.68963 13.6774 6.46365 13.5226L8.08908 13.1984C9.14273 12.9808 9.93717 12.5322 10.4728 11.851C11.0004 11.1798 11.1599 10.469 10.9529 9.71537L10.6433 8.56887C10.5093 8.07409 10.6387 7.5577 11.0303 7.02085C11.4536 6.61932 11.98 6.36668 12.6101 6.26265L13.9716 6.04593C14.1472 6.01463 14.3286 6.00011 14.5134 6.00011Z" fill="#96BC33"/>
</g>
<defs>
<filter id="filter0_ii_4207_17597" x="4" y="1" width="31.8809" height="37.2559" filterUnits="userSpaceOnUse" color-interpolation-filters="sRGB">
<feFlood flood-opacity="0" result="BackgroundImageFix"/>
<feBlend mode="normal" in="SourceGraphic" in2="BackgroundImageFix" result="shape"/>
<feColorMatrix in="SourceAlpha" type="matrix" values="0 0 0 0 0 0 0 0 0 0 0 0 0 0 0 0 0 0 127 0" result="hardAlpha"/>
<feOffset dy="4"/>
<feGaussianBlur stdDeviation="7"/>
<feComposite in2="hardAlpha" operator="arithmetic" k2="-1" k3="1"/>
<feColorMatrix type="matrix" values="0 0 0 0 1 0 0 0 0 1 0 0 0 0 1 0 0 0 0.25 0"/>
<feBlend mode="normal" in2="shape" result="effect1_innerShadow_4207_17597"/>
<feColorMatrix in="SourceAlpha" type="matrix" values="0 0 0 0 0 0 0 0 0 0 0 0 0 0 0 0 0 0 127 0" result="hardAlpha"/>
<feOffset dy="-5"/>
<feGaussianBlur stdDeviation="27"/>
<feComposite in2="hardAlpha" operator="arithmetic" k2="-1" k3="1"/>
<feColorMatrix type="matrix" values="0 0 0 0 0.2 0 0 0 0 0.2 0 0 0 0 0.2 0 0 0 0.25 0"/>
<feBlend mode="normal" in2="effect1_innerShadow_4207_17597" result="effect2_innerShadow_4207_17597"/>
</filter>
</defs>
</svg>
