<svg width="254" height="52" viewBox="0 0 254 52" fill="none" xmlns="http://www.w3.org/2000/svg">
<path fill-rule="evenodd" clip-rule="evenodd" d="M36.8774 7.28019C37.5827 7.28019 38.3178 7.44645 39.0828 7.78304C40.1033 8.24898 40.8565 8.99702 41.3484 10.0229L42.3174 12.0947C42.6114 12.7111 43.0619 13.2886 43.6707 13.831C44.2588 14.3716 44.9551 14.8285 45.7592 15.2025C46.7789 15.6684 47.778 15.9024 48.7566 15.9024C49.2878 15.9024 49.8069 15.8369 50.3169 15.7058L52.6693 15.1459C53.0203 15.054 53.3837 15.0059 53.7554 15.0059C54.5023 15.0059 55.2857 15.194 56.1078 15.5658C57.3234 16.1085 58.2056 16.8824 58.7543 17.8907L59.9905 20.1021C60.5991 21.1481 60.7162 22.202 60.3445 23.2653C59.9516 24.3478 59.1953 25.0477 58.0791 25.3651L55.6097 26.0937C54.0612 26.5416 53.0022 27.5019 52.4322 28.9786C51.7665 30.6215 51.826 32.2812 52.6091 33.9611L53.9324 36.7609C54.5205 38.0123 54.6493 39.3467 54.3165 40.7639C53.7284 41.9779 52.8069 42.9294 51.55 43.6203L48.6695 44.6836C48.0215 44.8343 47.3945 44.9087 46.7883 44.9087C45.9062 44.9087 45.024 44.7403 44.1419 44.4037C42.7286 43.5464 41.7594 42.4349 41.2313 41.0725L40.0551 38.0492C39.4851 36.5553 39.4759 35.23 40.0252 34.0731C40.6521 32.7672 41.6813 31.9072 43.1127 31.4984L45.8761 30.6584C47.5623 30.1534 48.7178 29.1555 49.3447 27.6615C49.9328 26.205 49.8551 24.6848 49.1106 23.099L47.9645 20.7192C47.2381 19.2056 46.092 18.0963 44.5227 17.3857C43.4849 16.9025 42.4557 16.6595 41.4352 16.6595C40.9073 16.6768 40.3672 16.7514 39.8179 16.8824L37.2016 17.4994C36.7123 17.6107 36.2324 17.6657 35.7615 17.6657C34.9362 17.6657 34.1141 17.4708 33.2919 17.0795C32.1726 16.5744 31.3895 15.7428 30.9395 14.5859L30.0844 12.4027C29.6732 11.3202 29.7421 10.3689 30.2914 9.54629C30.8407 8.72601 31.6241 8.22316 32.6438 8.03502C32.821 7.99744 32.9861 7.969 33.1449 7.95147L35.6714 7.47506C35.8483 7.42019 35.9953 7.38323 36.1124 7.36307C36.3677 7.30646 36.6229 7.28019 36.8774 7.28019Z" fill="#00ACDD"/>
<path fill-rule="evenodd" clip-rule="evenodd" d="M23.9697 10.107C24.7143 10.107 25.4701 10.284 26.2351 10.6407C27.3125 11.1239 28.0563 11.9179 28.4675 13.0205L29.2927 15.2317C29.8808 16.7235 30.967 17.8545 32.5572 18.6201C33.5746 19.086 34.6155 19.32 35.6717 19.32C36.2991 19.3374 36.9467 19.2629 37.6129 19.0949L40.2295 18.4514C40.6435 18.3401 41.0547 18.283 41.4657 18.283C42.2698 18.3032 43.083 18.4974 43.9051 18.8714C45.1801 19.4489 46.0717 20.2803 46.5815 21.3628L47.7007 23.771C48.2495 24.891 48.2677 26.0284 47.7577 27.1857C47.2298 28.3622 46.3382 29.1366 45.0813 29.5106L42.3177 30.3221C40.4572 30.8451 39.134 31.9191 38.3481 33.5419C37.9371 34.3818 37.7212 35.2419 37.703 36.1188C37.6819 36.9957 37.859 37.9386 38.2312 38.9448L39.3772 41.9983C39.8872 43.3613 39.8872 44.8244 39.3772 46.3929C38.417 47.8492 37.2408 48.9407 35.8486 49.6691L32.5572 50.8726C31.9298 51.0209 31.3003 51.0977 30.6729 51.0977C29.6736 51.0977 28.7047 50.9095 27.7623 50.5377C26.1958 49.7721 25.1848 48.5868 24.735 46.9808L23.7926 43.6495C23.3035 41.9502 23.4986 40.4758 24.3807 39.2248C25.224 37.77 26.3911 36.8277 27.8794 36.3988L30.9968 35.4451C33.0371 34.8302 34.4685 33.7103 35.2907 32.0854C35.7223 31.2454 35.9776 30.3965 36.0559 29.5393C36.1128 28.6624 35.9957 27.8307 35.7016 27.0457L34.7026 24.4997C34.1145 22.9687 32.9289 21.7827 31.1439 20.9428C30.106 20.4573 29.0375 20.2149 27.9394 20.2149C27.2732 20.2149 26.5861 20.3 25.8811 20.4662L22.9406 21.1662C22.4694 21.2799 21.9984 21.3348 21.5303 21.3348C20.6482 21.3348 19.766 21.1288 18.8839 20.7199C17.6089 20.2343 16.7956 19.357 16.4414 18.0864L15.7364 15.7066C15.4035 14.4948 15.6375 13.4668 16.4414 12.6268C17.1678 11.7125 18.0499 11.1526 19.0878 10.9469C19.2649 10.9296 19.4327 10.9095 19.5891 10.892L22.4125 10.3321C22.6077 10.2756 22.7935 10.2297 22.9707 10.1921C23.3035 10.1356 23.6369 10.107 23.9697 10.107Z" fill="#004166"/>
<path fill-rule="evenodd" clip-rule="evenodd" d="M19.9703 0.000205994C20.7562 0.000205994 21.6177 0.140198 22.5598 0.420174C23.6553 1.10898 24.3422 1.84633 24.6182 2.63134L25.3533 4.56275C25.6862 5.44009 25.5874 6.33669 25.0592 7.25099C24.234 8.16551 23.2143 8.73443 21.9988 8.95953L19.2653 9.49082C17.4229 9.84539 16.0006 10.6283 15.0016 11.8422C13.9818 13.0741 13.6878 14.465 14.1194 16.0139L14.7946 18.4217C15.2086 19.9336 16.2467 21.0905 17.912 21.8934C19.0101 22.3985 20.2462 22.6498 21.6177 22.6498C22.2058 22.6498 22.8033 22.6017 23.4121 22.5098L26.3825 21.7815C26.5958 21.7248 26.7843 21.6789 26.9407 21.6415C27.2917 21.5474 27.6551 21.5015 28.0268 21.5015C28.7737 21.5015 29.6053 21.6789 30.5262 22.0334C31.7236 22.7244 32.5363 23.6298 32.9687 24.7497L33.9377 27.353C34.4477 28.6981 34.4089 29.921 33.8208 31.0208C32.9593 32.364 31.8313 33.2326 30.4392 33.6239L27.3517 34.5489C26.7636 34.7176 26.1962 34.8005 25.6473 34.8005C24.744 34.8206 23.8532 34.6039 22.971 34.1576C21.7346 33.4096 20.8136 32.3837 20.2074 31.0779L19.4424 28.333C18.9505 26.6531 17.855 25.4015 16.1477 24.5812C14.9326 24.0016 13.6991 23.7133 12.4422 23.7133C11.7764 23.7133 11.0919 23.7984 10.3838 23.9647L7.12222 24.7497C6.53412 24.8814 5.94602 24.9446 5.35792 24.9446C4.47578 24.9446 3.60257 24.7873 2.73853 24.4697C1.4847 23.7043 0.74959 22.7334 0.533188 21.5586L0.0650015 18.9817C-0.151401 17.7132 0.172747 16.6018 1.03422 15.6504C1.99447 14.5681 3.20948 13.8854 4.67973 13.6054L7.76725 13.0192C9.76867 12.6255 11.2777 11.8142 12.2951 10.5823C13.2973 9.36836 13.6003 8.08264 13.2072 6.7197L12.6191 4.64612C12.3645 3.75126 12.6104 2.8173 13.3542 1.84633C14.1582 1.12012 15.158 0.663197 16.3549 0.475052L18.9411 0.0830803C19.2747 0.0264702 19.6193 0.000205994 19.9703 0.000205994Z" fill="#96BC33"/>
<path d="M76.5222 13.4594V17.9161H74.2843V34.5461H76.5222V39.0024H66V34.5461H68.2387V17.9161H66V13.4594H76.5222ZM98.28 39.0024L92.3898 39.0024V28.8698C92.3898 26.043 91.328 24.6293 89.2057 24.6293C88.1822 24.6293 87.3417 25.0058 86.6798 25.7581C86.0247 26.5049 85.6983 27.4504 85.6983 28.5962V39.0024H79.7845V20.7653L85.6983 20.7653V23.6497H85.7704C87.1739 21.4322 89.2241 20.3212 91.9233 20.3212C96.1608 20.3212 98.28 22.8261 98.28 27.8325V39.0024Z" fill="#004166"/>
<path d="M114.554 38.7841C113.683 39.2226 112.367 39.4448 110.604 39.4448C106.437 39.4448 104.355 37.3878 104.355 33.267V24.9121H101.254V20.7629H104.355V16.8308L110.257 15.224V20.7629H114.554V24.9121H110.257V32.2865C110.257 34.1877 111.046 35.1366 112.627 35.1366C113.249 35.1366 113.89 34.9654 114.554 34.6231V38.7841Z" fill="#004166"/>
<path d="M135.07 31.4892H122.585C122.782 34.1336 124.536 35.4555 127.84 35.4555C129.947 35.4555 131.796 34.9827 133.395 34.0307V38.0881C131.623 38.9949 129.319 39.4448 126.487 39.4448C123.399 39.4448 120.998 38.6301 119.293 36.9939C117.584 35.3615 116.731 33.0847 116.731 30.1667C116.731 27.1436 117.653 24.7466 119.496 22.9748C121.34 21.2049 123.609 20.3187 126.308 20.3187C129.1 20.3187 131.258 21.1109 132.784 22.6895C134.307 24.271 135.07 26.4141 135.07 29.1184V31.4892ZM129.6 28.0242C129.6 25.4191 128.487 24.1143 126.26 24.1143C125.317 24.1143 124.5 24.4904 123.806 25.2427C123.111 25.989 122.686 26.9154 122.537 28.0242H129.6Z" fill="#004166"/>
<path d="M138.593 39.0024H144.506V11.9999H138.593V39.0024Z" fill="#004166"/>
<path d="M149.517 39.0024H155.431V11.9999H149.517V39.0024Z" fill="#004166"/>
<path d="M163.432 17.8816C162.432 17.8816 161.616 17.6024 160.978 17.0385C160.338 16.4685 160.021 15.7787 160.021 14.9637C160.021 14.1205 160.338 13.434 160.978 12.9009C161.616 12.3623 162.432 12.0916 163.432 12.0916C164.437 12.0916 165.255 12.3623 165.886 12.9009C166.514 13.434 166.832 14.1205 166.832 14.9637C166.832 15.8157 166.514 16.5138 165.886 17.061C165.255 17.6081 164.437 17.8816 163.432 17.8816ZM166.353 39.0024H160.44V20.7653H166.353V39.0024Z" fill="#004166"/>
<path d="M187.452 18.1444L177.982 18.1444V24.4128H186.686V29.0866H177.982V39.0024H171.938V13.4594L187.452 13.4594V18.1444Z" fill="#004166"/>
<path d="M191.265 39.0024H197.178V11.9999H191.265V39.0024Z" fill="#004166"/>
<path d="M211.31 39.4448C208.117 39.4448 205.606 38.5959 203.781 36.8916C201.961 35.1908 201.052 32.8766 201.052 29.9502C201.052 26.9351 201.997 24.5759 203.889 22.8719C205.786 21.1707 208.348 20.3187 211.574 20.3187C214.758 20.3187 217.251 21.1707 219.056 22.8719C220.867 24.5759 221.773 26.827 221.773 29.6313C221.773 32.6629 220.84 35.0565 218.972 36.8115C217.11 38.5675 214.557 39.4448 211.31 39.4448ZM211.466 24.6269C210.069 24.6269 208.982 25.0888 208.21 26.0064C207.435 26.9182 207.049 28.2117 207.049 29.8814C207.049 33.3867 208.533 35.1366 211.502 35.1366C214.334 35.1366 215.752 33.3354 215.752 29.7333C215.752 26.331 214.321 24.6269 211.466 24.6269Z" fill="#004166"/>
<path d="M253.343 20.7653L247.825 39.0024H241.612L238.786 28.3113C238.601 27.6043 238.499 26.8295 238.475 25.9863H238.356C238.275 26.915 238.152 27.667 237.985 28.2426L234.956 39.0024H228.827L223.416 20.7653H229.437L232.071 32.6653C232.197 33.2213 232.293 33.8961 232.358 34.6943H232.466C232.529 33.8596 232.64 33.1555 232.801 32.5859L236.093 20.7653L241.731 20.7653L244.689 32.6653C244.76 32.9617 244.844 33.651 244.94 34.7285H245.072C245.135 34.0391 245.233 33.3489 245.371 32.6653L247.861 20.7653H253.343Z" fill="#004166"/>
</svg>
