<svg width="188" height="28" viewBox="0 0 188 28" fill="none" xmlns="http://www.w3.org/2000/svg">
<path d="M10.5222 1.45941V5.91612H8.28432L8.28432 22.5461H10.5222V27.0024H0L0 22.5461H2.23867L2.23867 5.91612H0L0 1.45941H10.5222ZM32.28 27.0024H26.3898V16.8698C26.3898 14.043 25.328 12.6293 23.2057 12.6293C22.1822 12.6293 21.3417 13.0058 20.6798 13.7581C20.0247 14.5049 19.6983 15.4504 19.6983 16.5962V27.0024L13.7845 27.0024L13.7845 8.76534L19.6983 8.76534V11.6497H19.7704C21.1739 9.43216 23.2241 8.32116 25.9233 8.32116C30.1608 8.32116 32.28 10.8261 32.28 15.8325V27.0024Z" fill="#004166"/>
<path d="M48.5539 26.7841C47.6828 27.2226 46.3666 27.4448 44.6037 27.4448C40.4374 27.4448 38.355 25.3878 38.355 21.267V12.9121H35.2544V8.76288H38.355V4.83082L44.2566 3.22399V8.76288H48.5539V12.9121H44.2566V20.2865C44.2566 22.1877 45.0465 23.1366 46.6271 23.1366C47.2492 23.1366 47.8897 22.9654 48.5539 22.6231V26.7841Z" fill="#004166"/>
<path d="M69.0702 19.4892H56.5851C56.782 22.1336 58.5357 23.4555 61.8401 23.4555C63.947 23.4555 65.7964 22.9827 67.3946 22.0307V26.0881C65.6225 26.9949 63.3187 27.4448 60.487 27.4448C57.3987 27.4448 54.9984 26.6301 53.2929 24.9939C51.5837 23.3615 50.731 21.0847 50.731 18.1667C50.731 15.1436 51.6526 12.7466 53.496 10.9748C55.3401 9.20489 57.6086 8.31871 60.3078 8.31871C63.1004 8.31871 65.2578 9.11086 66.784 10.6895C68.3071 12.271 69.0702 14.4141 69.0702 17.1184V19.4892ZM63.5999 16.0242C63.5999 13.4191 62.4867 12.1143 60.2595 12.1143C59.3171 12.1143 58.5004 12.4904 57.8055 13.2427C57.1114 13.989 56.6862 14.9154 56.5368 16.0242H63.5999Z" fill="#004166"/>
<path d="M72.5928 27.0024H78.5064V-0.000133514H72.5928V27.0024Z" fill="#004166"/>
<path d="M83.5166 27.0024H89.4306V-0.000133514H83.5166V27.0024Z" fill="#004166"/>
<path d="M97.4321 5.88162C96.4323 5.88162 95.6156 5.60237 94.9782 5.03848C94.3377 4.46853 94.0205 3.77866 94.0205 2.96368C94.0205 2.12054 94.3377 1.43403 94.9782 0.900923C95.6156 0.362345 96.4323 0.0916309 97.4321 0.0916309C98.4373 0.0916309 99.2548 0.362345 99.8861 0.900923C100.514 1.43403 100.832 2.12054 100.832 2.96368C100.832 3.81572 100.514 4.51384 99.8861 5.06095C99.2548 5.60806 98.4373 5.88162 97.4321 5.88162ZM100.353 27.0024H94.4396V8.76534H100.353V27.0024Z" fill="#004166"/>
<path d="M121.452 6.14438L111.982 6.14438V12.4128L120.686 12.4128V17.0866H111.982V27.0024H105.938V1.45941L121.452 1.45941V6.14438Z" fill="#004166"/>
<path d="M125.265 27.0024H131.178V-0.000133514H125.265V27.0024Z" fill="#004166"/>
<path d="M145.31 27.4448C142.117 27.4448 139.606 26.5959 137.781 24.8916C135.961 23.1908 135.052 20.8766 135.052 17.9502C135.052 14.9351 135.997 12.5759 137.889 10.8719C139.786 9.17068 142.348 8.31871 145.574 8.31871C148.758 8.31871 151.251 9.17068 153.056 10.8719C154.867 12.5759 155.773 14.827 155.773 17.6313C155.773 20.6629 154.84 23.0565 152.972 24.8115C151.11 26.5675 148.557 27.4448 145.31 27.4448ZM145.466 12.6269C144.069 12.6269 142.982 13.0888 142.21 14.0064C141.435 14.9182 141.049 16.2117 141.049 17.8814C141.049 21.3867 142.533 23.1366 145.502 23.1366C148.334 23.1366 149.752 21.3354 149.752 17.7333C149.752 14.331 148.321 12.6269 145.466 12.6269Z" fill="#004166"/>
<path d="M187.343 8.76534L181.825 27.0024H175.612L172.786 16.3113C172.601 15.6043 172.499 14.8295 172.475 13.9863H172.356C172.275 14.915 172.152 15.667 171.985 16.2426L168.956 27.0024H162.827L157.416 8.76534H163.437L166.071 20.6653C166.197 21.2213 166.293 21.8961 166.358 22.6943H166.466C166.529 21.8596 166.64 21.1555 166.801 20.5859L170.093 8.76534L175.731 8.76534L178.689 20.6653C178.76 20.9617 178.844 21.651 178.94 22.7285H179.072C179.135 22.0391 179.233 21.3489 179.371 20.6653L181.861 8.76534H187.343Z" fill="#004166"/>
</svg>
