<svg width="375" height="430" viewBox="0 0 375 430" fill="none" xmlns="http://www.w3.org/2000/svg">
<rect y="-17" width="385" height="447" fill="url(#paint0_linear_1842_10205)"/>
<ellipse cx="21.0541" cy="84.815" rx="2.77379" ry="2.76031" fill="#F8F8FB"/>
<ellipse cx="67.6962" cy="84.815" rx="2.77379" ry="2.76031" fill="#F8F8FB"/>
<ellipse cx="21.0541" cy="131.385" rx="2.77379" ry="2.76031" fill="#F8F8FB"/>
<ellipse cx="67.6962" cy="131.385" rx="2.77379" ry="2.76031" fill="#F8F8FB"/>
<ellipse cx="21.0541" cy="100.338" rx="2.77379" ry="2.76031" fill="#F8F8FB"/>
<ellipse cx="67.6962" cy="100.338" rx="2.77379" ry="2.76031" fill="#F8F8FB"/>
<ellipse cx="21.0541" cy="146.909" rx="2.77379" ry="2.76031" fill="#F8F8FB"/>
<ellipse cx="67.6962" cy="146.909" rx="2.77379" ry="2.76031" fill="#F8F8FB"/>
<ellipse cx="21.0541" cy="115.862" rx="2.77379" ry="2.76031" fill="#F8F8FB"/>
<ellipse cx="67.6962" cy="115.862" rx="2.77379" ry="2.76031" fill="#F8F8FB"/>
<ellipse cx="21.0541" cy="162.432" rx="2.77379" ry="2.76031" fill="#F8F8FB"/>
<ellipse cx="67.6962" cy="162.432" rx="2.77379" ry="2.76031" fill="#F8F8FB"/>
<ellipse cx="36.6014" cy="84.815" rx="2.77379" ry="2.76031" fill="#F8F8FB"/>
<ellipse cx="83.2435" cy="84.815" rx="2.77379" ry="2.76031" fill="#F8F8FB"/>
<ellipse cx="36.6014" cy="131.385" rx="2.77379" ry="2.76031" fill="#F8F8FB"/>
<ellipse cx="83.2435" cy="131.385" rx="2.77379" ry="2.76031" fill="#F8F8FB"/>
<ellipse cx="36.6014" cy="100.338" rx="2.77379" ry="2.76031" fill="#F8F8FB"/>
<ellipse cx="83.2435" cy="100.338" rx="2.77379" ry="2.76031" fill="#F8F8FB"/>
<ellipse cx="36.6014" cy="146.909" rx="2.77379" ry="2.76031" fill="#F8F8FB"/>
<ellipse cx="83.2435" cy="146.909" rx="2.77379" ry="2.76031" fill="#F8F8FB"/>
<ellipse cx="36.6014" cy="115.862" rx="2.77379" ry="2.76031" fill="#F8F8FB"/>
<ellipse cx="83.2435" cy="115.862" rx="2.77379" ry="2.76031" fill="#F8F8FB"/>
<ellipse cx="36.6014" cy="162.432" rx="2.77379" ry="2.76031" fill="#F8F8FB"/>
<ellipse cx="83.2435" cy="162.432" rx="2.77379" ry="2.76031" fill="#F8F8FB"/>
<ellipse cx="52.1488" cy="84.815" rx="2.77379" ry="2.76031" fill="#F8F8FB"/>
<ellipse cx="98.7909" cy="84.815" rx="2.77379" ry="2.76031" fill="#F8F8FB"/>
<ellipse cx="52.1488" cy="131.385" rx="2.77379" ry="2.76031" fill="#F8F8FB"/>
<ellipse cx="98.7909" cy="131.385" rx="2.77379" ry="2.76031" fill="#F8F8FB"/>
<ellipse cx="52.1488" cy="100.338" rx="2.77379" ry="2.76031" fill="#F8F8FB"/>
<ellipse cx="98.7909" cy="100.338" rx="2.77379" ry="2.76031" fill="#F8F8FB"/>
<ellipse cx="52.1488" cy="146.909" rx="2.77379" ry="2.76031" fill="#F8F8FB"/>
<ellipse cx="98.7909" cy="146.909" rx="2.77379" ry="2.76031" fill="#F8F8FB"/>
<ellipse cx="52.1488" cy="115.862" rx="2.77379" ry="2.76031" fill="#F8F8FB"/>
<ellipse cx="98.7909" cy="115.862" rx="2.77379" ry="2.76031" fill="#F8F8FB"/>
<ellipse cx="52.1488" cy="162.432" rx="2.77379" ry="2.76031" fill="#F8F8FB"/>
<ellipse cx="98.7909" cy="162.432" rx="2.77379" ry="2.76031" fill="#F8F8FB"/>
<path d="M86.09 195.235V202.15H94.535V204.985H86.09V214H82.565V192.4H96.035V195.235H86.09ZM104.225 198.46C105.355 198.46 106.375 198.645 107.285 199.015C108.205 199.385 108.985 199.91 109.625 200.59C110.275 201.27 110.775 202.095 111.125 203.065C111.475 204.035 111.65 205.125 111.65 206.335C111.65 207.545 111.475 208.635 111.125 209.605C110.775 210.575 110.275 211.405 109.625 212.095C108.985 212.775 108.205 213.3 107.285 213.67C106.375 214.04 105.355 214.225 104.225 214.225C103.085 214.225 102.055 214.04 101.135 213.67C100.225 213.3 99.4445 212.775 98.7945 212.095C98.1445 211.405 97.6445 210.575 97.2945 209.605C96.9445 208.635 96.7695 207.545 96.7695 206.335C96.7695 205.125 96.9445 204.035 97.2945 203.065C97.6445 202.095 98.1445 201.27 98.7945 200.59C99.4445 199.91 100.225 199.385 101.135 199.015C102.055 198.645 103.085 198.46 104.225 198.46ZM104.225 211.705C105.605 211.705 106.63 211.245 107.3 210.325C107.98 209.395 108.32 208.07 108.32 206.35C108.32 204.63 107.98 203.305 107.3 202.375C106.63 201.435 105.605 200.965 104.225 200.965C102.825 200.965 101.785 201.435 101.105 202.375C100.425 203.305 100.085 204.63 100.085 206.35C100.085 208.07 100.425 209.395 101.105 210.325C101.785 211.245 102.825 211.705 104.225 211.705ZM117.793 201.535C118.273 200.565 118.853 199.805 119.533 199.255C120.213 198.695 121.028 198.415 121.978 198.415C122.308 198.415 122.618 198.455 122.908 198.535C123.198 198.605 123.458 198.715 123.688 198.865L123.463 201.295C123.423 201.465 123.358 201.585 123.268 201.655C123.188 201.715 123.078 201.745 122.938 201.745C122.788 201.745 122.573 201.72 122.293 201.67C122.013 201.61 121.718 201.58 121.408 201.58C120.958 201.58 120.558 201.645 120.208 201.775C119.868 201.905 119.558 202.095 119.278 202.345C119.008 202.595 118.768 202.9 118.558 203.26C118.348 203.62 118.153 204.03 117.973 204.49V214H114.748V198.7H116.623C116.963 198.7 117.198 198.765 117.328 198.895C117.458 199.015 117.548 199.23 117.598 199.54L117.793 201.535ZM131.019 206.215C132.019 206.215 132.769 205.96 133.269 205.45C133.769 204.94 134.019 204.275 134.019 203.455C134.019 202.615 133.769 201.95 133.269 201.46C132.769 200.97 132.019 200.725 131.019 200.725C130.029 200.725 129.279 200.97 128.769 201.46C128.269 201.95 128.019 202.615 128.019 203.455C128.019 203.855 128.084 204.225 128.214 204.565C128.344 204.905 128.534 205.2 128.784 205.45C129.034 205.69 129.344 205.88 129.714 206.02C130.094 206.15 130.529 206.215 131.019 206.215ZM135.504 214.75C135.504 214.41 135.404 214.14 135.204 213.94C135.014 213.73 134.754 213.57 134.424 213.46C134.094 213.34 133.709 213.255 133.269 213.205C132.829 213.145 132.359 213.105 131.859 213.085C131.369 213.055 130.864 213.03 130.344 213.01C129.834 212.98 129.339 212.93 128.859 212.86C128.379 213.11 127.984 213.41 127.674 213.76C127.374 214.11 127.224 214.515 127.224 214.975C127.224 215.275 127.299 215.555 127.449 215.815C127.609 216.075 127.849 216.3 128.169 216.49C128.499 216.68 128.914 216.83 129.414 216.94C129.924 217.05 130.534 217.105 131.244 217.105C132.664 217.105 133.729 216.885 134.439 216.445C135.149 216.005 135.504 215.44 135.504 214.75ZM138.744 199.255V200.455C138.744 200.855 138.504 201.1 138.024 201.19L136.494 201.445C136.754 202.025 136.884 202.67 136.884 203.38C136.884 204.13 136.734 204.81 136.434 205.42C136.144 206.03 135.739 206.55 135.219 206.98C134.699 207.41 134.079 207.74 133.359 207.97C132.639 208.2 131.859 208.315 131.019 208.315C130.699 208.315 130.384 208.3 130.074 208.27C129.774 208.23 129.479 208.18 129.189 208.12C128.899 208.29 128.684 208.47 128.544 208.66C128.404 208.85 128.334 209.045 128.334 209.245C128.334 209.575 128.479 209.82 128.769 209.98C129.059 210.14 129.439 210.255 129.909 210.325C130.389 210.395 130.934 210.44 131.544 210.46C132.154 210.48 132.774 210.515 133.404 210.565C134.034 210.615 134.654 210.7 135.264 210.82C135.874 210.93 136.414 211.12 136.884 211.39C137.364 211.65 137.749 212.005 138.039 212.455C138.329 212.905 138.474 213.49 138.474 214.21C138.474 214.87 138.309 215.515 137.979 216.145C137.649 216.775 137.169 217.335 136.539 217.825C135.919 218.315 135.159 218.705 134.259 218.995C133.359 219.295 132.334 219.445 131.184 219.445C130.044 219.445 129.049 219.335 128.199 219.115C127.359 218.895 126.654 218.595 126.084 218.215C125.524 217.845 125.104 217.415 124.824 216.925C124.554 216.435 124.419 215.925 124.419 215.395C124.419 214.675 124.644 214.06 125.094 213.55C125.554 213.04 126.174 212.64 126.954 212.35C126.534 212.15 126.194 211.875 125.934 211.525C125.684 211.175 125.559 210.715 125.559 210.145C125.559 209.695 125.724 209.225 126.054 208.735C126.384 208.245 126.879 207.83 127.539 207.49C126.779 207.07 126.179 206.515 125.739 205.825C125.299 205.125 125.079 204.31 125.079 203.38C125.079 202.62 125.224 201.935 125.514 201.325C125.814 200.715 126.229 200.195 126.759 199.765C127.289 199.335 127.914 199.005 128.634 198.775C129.364 198.545 130.159 198.43 131.019 198.43C132.339 198.43 133.489 198.705 134.469 199.255H138.744ZM147.643 198.46C148.773 198.46 149.793 198.645 150.703 199.015C151.623 199.385 152.403 199.91 153.043 200.59C153.693 201.27 154.193 202.095 154.543 203.065C154.893 204.035 155.068 205.125 155.068 206.335C155.068 207.545 154.893 208.635 154.543 209.605C154.193 210.575 153.693 211.405 153.043 212.095C152.403 212.775 151.623 213.3 150.703 213.67C149.793 214.04 148.773 214.225 147.643 214.225C146.503 214.225 145.473 214.04 144.553 213.67C143.643 213.3 142.863 212.775 142.213 212.095C141.563 211.405 141.063 210.575 140.713 209.605C140.363 208.635 140.188 207.545 140.188 206.335C140.188 205.125 140.363 204.035 140.713 203.065C141.063 202.095 141.563 201.27 142.213 200.59C142.863 199.91 143.643 199.385 144.553 199.015C145.473 198.645 146.503 198.46 147.643 198.46ZM147.643 211.705C149.023 211.705 150.048 211.245 150.718 210.325C151.398 209.395 151.738 208.07 151.738 206.35C151.738 204.63 151.398 203.305 150.718 202.375C150.048 201.435 149.023 200.965 147.643 200.965C146.243 200.965 145.203 201.435 144.523 202.375C143.843 203.305 143.503 204.63 143.503 206.35C143.503 208.07 143.843 209.395 144.523 210.325C145.203 211.245 146.243 211.705 147.643 211.705ZM162.778 214.24C161.508 214.24 160.528 213.885 159.838 213.175C159.158 212.455 158.818 211.445 158.818 210.145V201.235H157.138C156.958 201.235 156.803 201.18 156.673 201.07C156.543 200.95 156.478 200.775 156.478 200.545V199.24L158.953 198.88L159.658 194.455C159.708 194.285 159.793 194.15 159.913 194.05C160.033 193.94 160.193 193.885 160.393 193.885H162.043V198.91H166.288V201.235H162.043V209.92C162.043 210.47 162.178 210.89 162.448 211.18C162.718 211.47 163.078 211.615 163.528 211.615C163.778 211.615 163.993 211.585 164.173 211.525C164.353 211.455 164.508 211.385 164.638 211.315C164.768 211.235 164.878 211.165 164.968 211.105C165.068 211.035 165.163 211 165.253 211C165.433 211 165.578 211.1 165.688 211.3L166.648 212.875C166.148 213.315 165.558 213.655 164.878 213.895C164.198 214.125 163.498 214.24 162.778 214.24ZM183.621 203.41C184.401 203.41 185.086 203.31 185.676 203.11C186.276 202.91 186.771 202.63 187.161 202.27C187.561 201.9 187.861 201.455 188.061 200.935C188.261 200.415 188.361 199.835 188.361 199.195C188.361 198.565 188.261 198 188.061 197.5C187.871 197 187.581 196.575 187.191 196.225C186.801 195.875 186.306 195.61 185.706 195.43C185.116 195.24 184.421 195.145 183.621 195.145H180.411V203.41H183.621ZM183.621 192.4C185.031 192.4 186.251 192.565 187.281 192.895C188.321 193.225 189.176 193.69 189.846 194.29C190.526 194.88 191.031 195.595 191.361 196.435C191.691 197.265 191.856 198.185 191.856 199.195C191.856 200.225 191.681 201.17 191.331 202.03C190.981 202.88 190.461 203.615 189.771 204.235C189.081 204.845 188.221 205.325 187.191 205.675C186.171 206.015 184.981 206.185 183.621 206.185H180.411V214H176.901V192.4H183.621ZM202.318 207.31C201.168 207.35 200.198 207.445 199.408 207.595C198.618 207.735 197.978 207.92 197.488 208.15C196.998 208.37 196.643 208.635 196.423 208.945C196.213 209.255 196.108 209.595 196.108 209.965C196.108 210.325 196.163 210.635 196.273 210.895C196.393 211.145 196.553 211.355 196.753 211.525C196.963 211.685 197.203 211.805 197.473 211.885C197.753 211.955 198.058 211.99 198.388 211.99C199.228 211.99 199.948 211.835 200.548 211.525C201.158 211.205 201.748 210.745 202.318 210.145V207.31ZM193.768 200.83C195.498 199.22 197.558 198.415 199.948 198.415C200.828 198.415 201.608 198.56 202.288 198.85C202.978 199.13 203.553 199.53 204.013 200.05C204.483 200.57 204.838 201.19 205.078 201.91C205.328 202.62 205.453 203.41 205.453 204.28V214H204.013C203.703 214 203.468 213.955 203.308 213.865C203.148 213.765 203.013 213.57 202.903 213.28L202.588 212.035C202.198 212.385 201.813 212.7 201.433 212.98C201.053 213.25 200.658 213.48 200.248 213.67C199.848 213.86 199.413 214 198.943 214.09C198.483 214.19 197.973 214.24 197.413 214.24C196.793 214.24 196.213 214.155 195.673 213.985C195.143 213.815 194.683 213.56 194.293 213.22C193.903 212.87 193.593 212.44 193.363 211.93C193.143 211.42 193.033 210.82 193.033 210.13C193.033 209.54 193.188 208.965 193.498 208.405C193.818 207.845 194.338 207.345 195.058 206.905C195.788 206.455 196.743 206.085 197.923 205.795C199.113 205.505 200.578 205.34 202.318 205.3V204.28C202.318 203.18 202.083 202.36 201.613 201.82C201.143 201.28 200.453 201.01 199.543 201.01C198.923 201.01 198.403 201.09 197.983 201.25C197.563 201.4 197.198 201.565 196.888 201.745C196.578 201.925 196.303 202.095 196.063 202.255C195.823 202.405 195.568 202.48 195.298 202.48C195.078 202.48 194.888 202.425 194.728 202.315C194.578 202.195 194.453 202.05 194.353 201.88L193.768 200.83ZM218.366 201.475C218.286 201.615 218.196 201.715 218.096 201.775C217.996 201.835 217.871 201.865 217.721 201.865C217.551 201.865 217.366 201.815 217.166 201.715C216.966 201.605 216.731 201.485 216.461 201.355C216.191 201.225 215.871 201.11 215.501 201.01C215.141 200.9 214.716 200.845 214.226 200.845C213.826 200.845 213.461 200.895 213.131 200.995C212.811 201.085 212.536 201.22 212.306 201.4C212.086 201.57 211.916 201.775 211.796 202.015C211.676 202.245 211.616 202.495 211.616 202.765C211.616 203.125 211.726 203.425 211.946 203.665C212.166 203.905 212.456 204.115 212.816 204.295C213.176 204.465 213.586 204.62 214.046 204.76C214.506 204.9 214.976 205.05 215.456 205.21C215.936 205.37 216.406 205.555 216.866 205.765C217.326 205.975 217.736 206.235 218.096 206.545C218.456 206.845 218.746 207.215 218.966 207.655C219.186 208.085 219.296 208.61 219.296 209.23C219.296 209.95 219.166 210.615 218.906 211.225C218.646 211.835 218.266 212.365 217.766 212.815C217.266 213.265 216.641 213.615 215.891 213.865C215.151 214.115 214.301 214.24 213.341 214.24C212.811 214.24 212.296 214.19 211.796 214.09C211.306 214 210.836 213.875 210.386 213.715C209.946 213.545 209.531 213.345 209.141 213.115C208.761 212.885 208.421 212.635 208.121 212.365L208.871 211.135C208.961 210.985 209.071 210.87 209.201 210.79C209.341 210.7 209.511 210.655 209.711 210.655C209.921 210.655 210.126 210.725 210.326 210.865C210.536 210.995 210.776 211.14 211.046 211.3C211.326 211.46 211.661 211.61 212.051 211.75C212.441 211.88 212.926 211.945 213.506 211.945C213.986 211.945 214.401 211.89 214.751 211.78C215.101 211.66 215.391 211.5 215.621 211.3C215.851 211.1 216.021 210.875 216.131 210.625C216.241 210.365 216.296 210.09 216.296 209.8C216.296 209.41 216.186 209.09 215.966 208.84C215.746 208.59 215.451 208.375 215.081 208.195C214.721 208.015 214.306 207.855 213.836 207.715C213.376 207.575 212.906 207.425 212.426 207.265C211.946 207.105 211.471 206.92 211.001 206.71C210.541 206.5 210.126 206.235 209.756 205.915C209.396 205.585 209.106 205.19 208.886 204.73C208.666 204.26 208.556 203.69 208.556 203.02C208.556 202.41 208.676 201.83 208.916 201.28C209.166 200.73 209.526 200.245 209.996 199.825C210.476 199.405 211.061 199.075 211.751 198.835C212.451 198.585 213.256 198.46 214.166 198.46C215.196 198.46 216.131 198.625 216.971 198.955C217.811 199.285 218.516 199.735 219.086 200.305L218.366 201.475ZM231.461 201.475C231.381 201.615 231.291 201.715 231.191 201.775C231.091 201.835 230.966 201.865 230.816 201.865C230.646 201.865 230.461 201.815 230.261 201.715C230.061 201.605 229.826 201.485 229.556 201.355C229.286 201.225 228.966 201.11 228.596 201.01C228.236 200.9 227.811 200.845 227.321 200.845C226.921 200.845 226.556 200.895 226.226 200.995C225.906 201.085 225.631 201.22 225.401 201.4C225.181 201.57 225.011 201.775 224.891 202.015C224.771 202.245 224.711 202.495 224.711 202.765C224.711 203.125 224.821 203.425 225.041 203.665C225.261 203.905 225.551 204.115 225.911 204.295C226.271 204.465 226.681 204.62 227.141 204.76C227.601 204.9 228.071 205.05 228.551 205.21C229.031 205.37 229.501 205.555 229.961 205.765C230.421 205.975 230.831 206.235 231.191 206.545C231.551 206.845 231.841 207.215 232.061 207.655C232.281 208.085 232.391 208.61 232.391 209.23C232.391 209.95 232.261 210.615 232.001 211.225C231.741 211.835 231.361 212.365 230.861 212.815C230.361 213.265 229.736 213.615 228.986 213.865C228.246 214.115 227.396 214.24 226.436 214.24C225.906 214.24 225.391 214.19 224.891 214.09C224.401 214 223.931 213.875 223.481 213.715C223.041 213.545 222.626 213.345 222.236 213.115C221.856 212.885 221.516 212.635 221.216 212.365L221.966 211.135C222.056 210.985 222.166 210.87 222.296 210.79C222.436 210.7 222.606 210.655 222.806 210.655C223.016 210.655 223.221 210.725 223.421 210.865C223.631 210.995 223.871 211.14 224.141 211.3C224.421 211.46 224.756 211.61 225.146 211.75C225.536 211.88 226.021 211.945 226.601 211.945C227.081 211.945 227.496 211.89 227.846 211.78C228.196 211.66 228.486 211.5 228.716 211.3C228.946 211.1 229.116 210.875 229.226 210.625C229.336 210.365 229.391 210.09 229.391 209.8C229.391 209.41 229.281 209.09 229.061 208.84C228.841 208.59 228.546 208.375 228.176 208.195C227.816 208.015 227.401 207.855 226.931 207.715C226.471 207.575 226.001 207.425 225.521 207.265C225.041 207.105 224.566 206.92 224.096 206.71C223.636 206.5 223.221 206.235 222.851 205.915C222.491 205.585 222.201 205.19 221.981 204.73C221.761 204.26 221.651 203.69 221.651 203.02C221.651 202.41 221.771 201.83 222.011 201.28C222.261 200.73 222.621 200.245 223.091 199.825C223.571 199.405 224.156 199.075 224.846 198.835C225.546 198.585 226.351 198.46 227.261 198.46C228.291 198.46 229.226 198.625 230.066 198.955C230.906 199.285 231.611 199.735 232.181 200.305L231.461 201.475ZM256.917 198.7L252.012 214H249.447C249.147 214 248.937 213.805 248.817 213.415L245.772 203.89C245.692 203.62 245.617 203.35 245.547 203.08C245.487 202.81 245.432 202.545 245.382 202.285C245.272 202.825 245.137 203.365 244.977 203.905L241.887 213.415C241.777 213.805 241.542 214 241.182 214H238.737L233.832 198.7H236.382C236.632 198.7 236.837 198.765 236.997 198.895C237.167 199.015 237.277 199.16 237.327 199.33L239.877 208.24C239.977 208.65 240.062 209.05 240.132 209.44C240.212 209.82 240.282 210.2 240.342 210.58C240.442 210.2 240.547 209.82 240.657 209.44C240.767 209.05 240.882 208.65 241.002 208.24L243.867 199.285C243.917 199.105 244.017 198.96 244.167 198.85C244.327 198.73 244.517 198.67 244.737 198.67H246.147C246.377 198.67 246.572 198.73 246.732 198.85C246.892 198.96 246.997 199.105 247.047 199.285L249.837 208.24C249.957 208.65 250.067 209.05 250.167 209.44C250.277 209.83 250.377 210.22 250.467 210.61C250.537 210.23 250.612 209.845 250.692 209.455C250.772 209.065 250.867 208.66 250.977 208.24L253.572 199.33C253.632 199.15 253.742 199 253.902 198.88C254.062 198.76 254.257 198.7 254.487 198.7H256.917ZM265.65 198.46C266.78 198.46 267.8 198.645 268.71 199.015C269.63 199.385 270.41 199.91 271.05 200.59C271.7 201.27 272.2 202.095 272.55 203.065C272.9 204.035 273.075 205.125 273.075 206.335C273.075 207.545 272.9 208.635 272.55 209.605C272.2 210.575 271.7 211.405 271.05 212.095C270.41 212.775 269.63 213.3 268.71 213.67C267.8 214.04 266.78 214.225 265.65 214.225C264.51 214.225 263.48 214.04 262.56 213.67C261.65 213.3 260.87 212.775 260.22 212.095C259.57 211.405 259.07 210.575 258.72 209.605C258.37 208.635 258.195 207.545 258.195 206.335C258.195 205.125 258.37 204.035 258.72 203.065C259.07 202.095 259.57 201.27 260.22 200.59C260.87 199.91 261.65 199.385 262.56 199.015C263.48 198.645 264.51 198.46 265.65 198.46ZM265.65 211.705C267.03 211.705 268.055 211.245 268.725 210.325C269.405 209.395 269.745 208.07 269.745 206.35C269.745 204.63 269.405 203.305 268.725 202.375C268.055 201.435 267.03 200.965 265.65 200.965C264.25 200.965 263.21 201.435 262.53 202.375C261.85 203.305 261.51 204.63 261.51 206.35C261.51 208.07 261.85 209.395 262.53 210.325C263.21 211.245 264.25 211.705 265.65 211.705ZM279.219 201.535C279.699 200.565 280.279 199.805 280.959 199.255C281.639 198.695 282.454 198.415 283.404 198.415C283.734 198.415 284.044 198.455 284.334 198.535C284.624 198.605 284.884 198.715 285.114 198.865L284.889 201.295C284.849 201.465 284.784 201.585 284.694 201.655C284.614 201.715 284.504 201.745 284.364 201.745C284.214 201.745 283.999 201.72 283.719 201.67C283.439 201.61 283.144 201.58 282.834 201.58C282.384 201.58 281.984 201.645 281.634 201.775C281.294 201.905 280.984 202.095 280.704 202.345C280.434 202.595 280.194 202.9 279.984 203.26C279.774 203.62 279.579 204.03 279.399 204.49V214H276.174V198.7H278.049C278.389 198.7 278.624 198.765 278.754 198.895C278.884 199.015 278.974 199.23 279.024 199.54L279.219 201.535ZM296.515 202.465C296.065 201.885 295.57 201.48 295.03 201.25C294.49 201.02 293.905 200.905 293.275 200.905C292.015 200.905 291.03 201.37 290.32 202.3C289.61 203.22 289.255 204.585 289.255 206.395C289.255 207.335 289.335 208.14 289.495 208.81C289.655 209.47 289.885 210.01 290.185 210.43C290.485 210.85 290.85 211.155 291.28 211.345C291.71 211.535 292.195 211.63 292.735 211.63C293.555 211.63 294.26 211.455 294.85 211.105C295.45 210.745 296.005 210.24 296.515 209.59V202.465ZM299.74 191.8V214H297.79C297.36 214 297.085 213.795 296.965 213.385L296.68 211.72C296.04 212.47 295.31 213.075 294.49 213.535C293.68 213.995 292.735 214.225 291.655 214.225C290.795 214.225 290.015 214.055 289.315 213.715C288.615 213.365 288.015 212.86 287.515 212.2C287.015 211.54 286.625 210.725 286.345 209.755C286.075 208.775 285.94 207.655 285.94 206.395C285.94 205.255 286.09 204.2 286.39 203.23C286.7 202.26 287.14 201.42 287.71 200.71C288.28 199.99 288.97 199.43 289.78 199.03C290.6 198.62 291.515 198.415 292.525 198.415C293.425 198.415 294.19 198.56 294.82 198.85C295.45 199.13 296.015 199.525 296.515 200.035V191.8H299.74Z" fill="#F8F8FB"/>
<defs>
<linearGradient id="paint0_linear_1842_10205" x1="274.617" y1="323.488" x2="399.439" y2="914.269" gradientUnits="userSpaceOnUse">
<stop stop-color="#004166"/>
<stop offset="1" stop-color="#004166" stop-opacity="0"/>
</linearGradient>
</defs>
</svg>
