<svg width="375" height="430" viewBox="0 0 375 430" fill="none" xmlns="http://www.w3.org/2000/svg">
<rect y="-17" width="385" height="447" fill="url(#paint0_linear_1842_10206)"/>
<ellipse cx="21.0541" cy="84.815" rx="2.77379" ry="2.76031" fill="#F8F8FB"/>
<ellipse cx="67.6962" cy="84.815" rx="2.77379" ry="2.76031" fill="#F8F8FB"/>
<ellipse cx="21.0541" cy="131.385" rx="2.77379" ry="2.76031" fill="#F8F8FB"/>
<ellipse cx="67.6962" cy="131.385" rx="2.77379" ry="2.76031" fill="#F8F8FB"/>
<ellipse cx="21.0541" cy="100.338" rx="2.77379" ry="2.76031" fill="#F8F8FB"/>
<ellipse cx="67.6962" cy="100.338" rx="2.77379" ry="2.76031" fill="#F8F8FB"/>
<ellipse cx="21.0541" cy="146.909" rx="2.77379" ry="2.76031" fill="#F8F8FB"/>
<ellipse cx="67.6962" cy="146.909" rx="2.77379" ry="2.76031" fill="#F8F8FB"/>
<ellipse cx="21.0541" cy="115.862" rx="2.77379" ry="2.76031" fill="#F8F8FB"/>
<ellipse cx="67.6962" cy="115.862" rx="2.77379" ry="2.76031" fill="#F8F8FB"/>
<ellipse cx="21.0541" cy="162.432" rx="2.77379" ry="2.76031" fill="#F8F8FB"/>
<ellipse cx="67.6962" cy="162.432" rx="2.77379" ry="2.76031" fill="#F8F8FB"/>
<ellipse cx="36.6014" cy="84.815" rx="2.77379" ry="2.76031" fill="#F8F8FB"/>
<ellipse cx="83.2435" cy="84.815" rx="2.77379" ry="2.76031" fill="#F8F8FB"/>
<ellipse cx="36.6014" cy="131.385" rx="2.77379" ry="2.76031" fill="#F8F8FB"/>
<ellipse cx="83.2435" cy="131.385" rx="2.77379" ry="2.76031" fill="#F8F8FB"/>
<ellipse cx="36.6014" cy="100.338" rx="2.77379" ry="2.76031" fill="#F8F8FB"/>
<ellipse cx="83.2435" cy="100.338" rx="2.77379" ry="2.76031" fill="#F8F8FB"/>
<ellipse cx="36.6014" cy="146.909" rx="2.77379" ry="2.76031" fill="#F8F8FB"/>
<ellipse cx="83.2435" cy="146.909" rx="2.77379" ry="2.76031" fill="#F8F8FB"/>
<ellipse cx="36.6014" cy="115.862" rx="2.77379" ry="2.76031" fill="#F8F8FB"/>
<ellipse cx="83.2435" cy="115.862" rx="2.77379" ry="2.76031" fill="#F8F8FB"/>
<ellipse cx="36.6014" cy="162.432" rx="2.77379" ry="2.76031" fill="#F8F8FB"/>
<ellipse cx="83.2435" cy="162.432" rx="2.77379" ry="2.76031" fill="#F8F8FB"/>
<ellipse cx="52.1488" cy="84.815" rx="2.77379" ry="2.76031" fill="#F8F8FB"/>
<ellipse cx="98.7909" cy="84.815" rx="2.77379" ry="2.76031" fill="#F8F8FB"/>
<ellipse cx="52.1488" cy="131.385" rx="2.77379" ry="2.76031" fill="#F8F8FB"/>
<ellipse cx="98.7909" cy="131.385" rx="2.77379" ry="2.76031" fill="#F8F8FB"/>
<ellipse cx="52.1488" cy="100.338" rx="2.77379" ry="2.76031" fill="#F8F8FB"/>
<ellipse cx="98.7909" cy="100.338" rx="2.77379" ry="2.76031" fill="#F8F8FB"/>
<ellipse cx="52.1488" cy="146.909" rx="2.77379" ry="2.76031" fill="#F8F8FB"/>
<ellipse cx="98.7909" cy="146.909" rx="2.77379" ry="2.76031" fill="#F8F8FB"/>
<ellipse cx="52.1488" cy="115.862" rx="2.77379" ry="2.76031" fill="#F8F8FB"/>
<ellipse cx="98.7909" cy="115.862" rx="2.77379" ry="2.76031" fill="#F8F8FB"/>
<ellipse cx="52.1488" cy="162.432" rx="2.77379" ry="2.76031" fill="#F8F8FB"/>
<ellipse cx="98.7909" cy="162.432" rx="2.77379" ry="2.76031" fill="#F8F8FB"/>
<defs>
<linearGradient id="paint0_linear_1842_10206" x1="274.617" y1="323.488" x2="399.439" y2="914.269" gradientUnits="userSpaceOnUse">
<stop stop-color="#004166"/>
<stop offset="1" stop-color="#004166" stop-opacity="0"/>
</linearGradient>
</defs>
</svg>
