<svg width="290" height="43" viewBox="0 0 290 43" fill="none" xmlns="http://www.w3.org/2000/svg">
<rect x="0.368602" y="0.368602" width="289.263" height="41.2835" rx="3.31742" stroke="#004166" stroke-width="0.737205"/>
<path d="M20.4148 23.4947L20.4088 24.5327H15.0688V15.9167H20.4088V16.9547H16.3528V19.6847H19.6168V20.6867H16.3528V23.4947H20.4148ZM21.6023 24.5327V18.4367H22.3043C22.4683 18.4367 22.5703 18.5147 22.6103 18.6707L22.6943 19.2527C22.9183 18.9847 23.1663 18.7667 23.4383 18.5987C23.7143 18.4267 24.0363 18.3407 24.4043 18.3407C24.8083 18.3407 25.1363 18.4527 25.3883 18.6767C25.6403 18.8967 25.8243 19.1967 25.9403 19.5767C26.0283 19.3607 26.1423 19.1747 26.2823 19.0187C26.4223 18.8627 26.5783 18.7347 26.7503 18.6347C26.9223 18.5347 27.1043 18.4607 27.2963 18.4127C27.4923 18.3647 27.6903 18.3407 27.8903 18.3407C28.2143 18.3407 28.5023 18.3927 28.7543 18.4967C29.0103 18.5967 29.2263 18.7447 29.4023 18.9407C29.5783 19.1367 29.7123 19.3787 29.8043 19.6667C29.8963 19.9547 29.9423 20.2827 29.9423 20.6507V24.5327H28.7663V20.6507C28.7663 20.1947 28.6663 19.8507 28.4663 19.6187C28.2703 19.3867 27.9823 19.2707 27.6023 19.2707C27.4343 19.2707 27.2743 19.3007 27.1223 19.3607C26.9703 19.4167 26.8363 19.5027 26.7203 19.6187C26.6083 19.7347 26.5183 19.8787 26.4503 20.0507C26.3863 20.2227 26.3543 20.4227 26.3543 20.6507V24.5327H25.1783V20.6507C25.1783 20.1787 25.0843 19.8307 24.8963 19.6067C24.7083 19.3827 24.4323 19.2707 24.0683 19.2707C23.8163 19.2707 23.5823 19.3367 23.3663 19.4687C23.1503 19.6007 22.9523 19.7807 22.7723 20.0087V24.5327H21.6023ZM34.7923 21.8267C34.3163 21.8427 33.9123 21.8807 33.5803 21.9407C33.2483 21.9967 32.9783 22.0727 32.7703 22.1687C32.5623 22.2647 32.4123 22.3787 32.3203 22.5107C32.2283 22.6387 32.1823 22.7827 32.1823 22.9427C32.1823 23.0947 32.2063 23.2267 32.2543 23.3387C32.3063 23.4467 32.3743 23.5367 32.4583 23.6087C32.5463 23.6767 32.6483 23.7267 32.7643 23.7587C32.8803 23.7907 33.0063 23.8067 33.1423 23.8067C33.3223 23.8067 33.4863 23.7887 33.6343 23.7527C33.7863 23.7167 33.9283 23.6667 34.0603 23.6027C34.1923 23.5347 34.3183 23.4527 34.4383 23.3567C34.5583 23.2607 34.6763 23.1507 34.7923 23.0267V21.8267ZM31.3603 19.2887C31.7003 18.9647 32.0683 18.7227 32.4643 18.5627C32.8643 18.4027 33.3023 18.3227 33.7783 18.3227C34.1263 18.3227 34.4343 18.3807 34.7023 18.4967C34.9703 18.6087 35.1963 18.7667 35.3803 18.9707C35.5643 19.1747 35.7023 19.4187 35.7943 19.7027C35.8903 19.9867 35.9383 20.3007 35.9383 20.6447V24.5327H35.4163C35.3003 24.5327 35.2123 24.5147 35.1523 24.4787C35.0923 24.4387 35.0443 24.3667 35.0083 24.2627L34.8823 23.7287C34.7263 23.8727 34.5723 24.0007 34.4203 24.1127C34.2683 24.2207 34.1083 24.3147 33.9403 24.3947C33.7763 24.4707 33.6003 24.5287 33.4123 24.5687C33.2243 24.6087 33.0163 24.6287 32.7883 24.6287C32.5483 24.6287 32.3223 24.5967 32.1103 24.5327C31.9023 24.4647 31.7203 24.3627 31.5643 24.2267C31.4083 24.0907 31.2843 23.9207 31.1923 23.7167C31.1043 23.5127 31.0603 23.2747 31.0603 23.0027C31.0603 22.7627 31.1243 22.5327 31.2523 22.3127C31.3843 22.0887 31.5963 21.8887 31.8883 21.7127C32.1843 21.5367 32.5683 21.3927 33.0403 21.2807C33.5163 21.1687 34.1003 21.1047 34.7923 21.0887V20.6447C34.7923 20.1847 34.6943 19.8407 34.4983 19.6127C34.3023 19.3847 34.0143 19.2707 33.6343 19.2707C33.3783 19.2707 33.1623 19.3027 32.9863 19.3667C32.8143 19.4307 32.6643 19.5027 32.5363 19.5827C32.4123 19.6587 32.3023 19.7287 32.2063 19.7927C32.1143 19.8567 32.0183 19.8887 31.9183 19.8887C31.8383 19.8887 31.7683 19.8667 31.7083 19.8227C31.6523 19.7787 31.6063 19.7267 31.5703 19.6667L31.3603 19.2887ZM38.7286 18.4367V24.5327H37.5586V18.4367H38.7286ZM38.9506 16.5527C38.9506 16.6607 38.9286 16.7647 38.8846 16.8647C38.8406 16.9607 38.7806 17.0467 38.7046 17.1227C38.6326 17.1947 38.5466 17.2527 38.4466 17.2967C38.3466 17.3367 38.2426 17.3567 38.1346 17.3567C38.0266 17.3567 37.9246 17.3367 37.8286 17.2967C37.7326 17.2527 37.6466 17.1947 37.5706 17.1227C37.4986 17.0467 37.4406 16.9607 37.3966 16.8647C37.3566 16.7647 37.3366 16.6607 37.3366 16.5527C37.3366 16.4407 37.3566 16.3367 37.3966 16.2407C37.4406 16.1407 37.4986 16.0547 37.5706 15.9827C37.6466 15.9067 37.7326 15.8487 37.8286 15.8087C37.9246 15.7647 38.0266 15.7427 38.1346 15.7427C38.2426 15.7427 38.3466 15.7647 38.4466 15.8087C38.5466 15.8487 38.6326 15.9067 38.7046 15.9827C38.7806 16.0547 38.8406 16.1407 38.8846 16.2407C38.9286 16.3367 38.9506 16.4407 38.9506 16.5527ZM41.6226 15.6767V24.5327H40.4466V15.6767H41.6226Z" fill="#0D3C84" fill-opacity="0.47"/>
</svg>
