<svg width="17" height="20" viewBox="0 0 17 20" fill="none" xmlns="http://www.w3.org/2000/svg">
<path d="M8.16474 11.8318C6.70062 11.8318 5.20768 11.21 3.84734 10.0335C2.83033 9.15389 2.24791 8.28324 2.22364 8.24663C2.15653 8.14543 2.15587 8.0136 2.22199 7.91173C2.24596 7.87476 2.82115 6.99609 3.83476 6.10853C5.19043 4.92143 6.6877 4.29395 8.16474 4.29395C9.64922 4.29395 11.1589 4.92101 12.5306 6.10732C13.5565 6.99451 14.1414 7.87276 14.1658 7.90973C14.2332 8.01178 14.2331 8.1447 14.1655 8.24666C14.1412 8.2833 13.5584 9.15441 12.5335 10.0343C11.1636 11.2102 9.65286 11.8318 8.16474 11.8318ZM2.84388 8.07622C3.05729 8.36304 3.54806 8.97693 4.25167 9.58325C5.12064 10.3321 6.50488 11.2247 8.16474 11.2247C9.85573 11.2247 11.2547 10.3318 12.1305 9.58271C12.8381 8.9775 13.3298 8.36477 13.5442 8.07737C13.3296 7.78801 12.8358 7.16887 12.1261 6.55732C11.2492 5.80168 9.85016 4.90097 8.16471 4.90097C5.35711 4.901 3.33965 7.39829 2.84388 8.07622Z" fill="#8A8A8A"/>
<path d="M8.18504 10.6765C6.75729 10.6765 5.5957 9.50547 5.5957 8.06604C5.5957 6.62661 6.75729 5.45557 8.18504 5.45557C9.61279 5.45557 10.7744 6.62661 10.7744 8.06604C10.7744 9.50547 9.61279 10.6765 8.18504 10.6765ZM8.18504 6.06265C7.0893 6.06265 6.19788 6.96135 6.19788 8.06604C6.19788 9.17073 7.0893 10.0694 8.18504 10.0694C9.28079 10.0694 10.1722 9.17073 10.1722 8.06604C10.1722 6.96135 9.28076 6.06265 8.18504 6.06265Z" fill="#8A8A8A"/>
<path d="M8.19532 9.24448C7.55614 9.24448 7.03613 8.72023 7.03613 8.07584C7.03613 7.43145 7.55614 6.90723 8.19532 6.90723C8.83449 6.90723 9.3545 7.43148 9.3545 8.07584C9.3545 8.7202 8.83446 9.24448 8.19532 9.24448ZM8.19532 7.51431C7.88818 7.51431 7.63831 7.76622 7.63831 8.07584C7.63831 8.38548 7.88818 8.63739 8.19532 8.63739C8.50245 8.63739 8.75233 8.38548 8.75233 8.07584C8.7523 7.76622 8.50242 7.51431 8.19532 7.51431Z" fill="#8A8A8A"/>
</svg>
