<svg width="375" height="430" viewBox="0 0 375 430" fill="none" xmlns="http://www.w3.org/2000/svg">
<rect y="-17" width="385" height="447" fill="url(#paint0_linear_3116_15692)"/>
<ellipse cx="24.8828" cy="84.6531" rx="2.60254" ry="2.59842" fill="#F8F8FB"/>
<ellipse cx="71.728" cy="84.6531" rx="2.60254" ry="2.59842" fill="#F8F8FB"/>
<ellipse cx="24.8828" cy="131.422" rx="2.60254" ry="2.59842" fill="#F8F8FB"/>
<ellipse cx="71.728" cy="131.422" rx="2.60254" ry="2.59842" fill="#F8F8FB"/>
<ellipse cx="24.8828" cy="100.238" rx="2.60254" ry="2.59842" fill="#F8F8FB"/>
<ellipse cx="71.728" cy="100.238" rx="2.60254" ry="2.59842" fill="#F8F8FB"/>
<ellipse cx="24.8828" cy="147.007" rx="2.60254" ry="2.59842" fill="#F8F8FB"/>
<ellipse cx="71.728" cy="147.007" rx="2.60254" ry="2.59842" fill="#F8F8FB"/>
<ellipse cx="24.8828" cy="115.845" rx="2.60254" ry="2.59842" fill="#F8F8FB"/>
<ellipse cx="71.728" cy="115.845" rx="2.60254" ry="2.59842" fill="#F8F8FB"/>
<ellipse cx="24.8828" cy="162.599" rx="2.60254" ry="2.59842" fill="#F8F8FB"/>
<ellipse cx="71.728" cy="162.599" rx="2.60254" ry="2.59842" fill="#F8F8FB"/>
<ellipse cx="40.4976" cy="84.6531" rx="2.60254" ry="2.59842" fill="#F8F8FB"/>
<ellipse cx="87.3472" cy="84.6531" rx="2.60254" ry="2.59842" fill="#F8F8FB"/>
<ellipse cx="40.4976" cy="131.422" rx="2.60254" ry="2.59842" fill="#F8F8FB"/>
<ellipse cx="87.3472" cy="131.422" rx="2.60254" ry="2.59842" fill="#F8F8FB"/>
<ellipse cx="40.4976" cy="100.238" rx="2.60254" ry="2.59842" fill="#F8F8FB"/>
<ellipse cx="87.3472" cy="100.238" rx="2.60254" ry="2.59842" fill="#F8F8FB"/>
<ellipse cx="40.4976" cy="147.007" rx="2.60254" ry="2.59842" fill="#F8F8FB"/>
<ellipse cx="87.3472" cy="147.007" rx="2.60254" ry="2.59842" fill="#F8F8FB"/>
<ellipse cx="40.4976" cy="115.845" rx="2.60254" ry="2.59842" fill="#F8F8FB"/>
<ellipse cx="87.3472" cy="115.845" rx="2.60254" ry="2.59842" fill="#F8F8FB"/>
<ellipse cx="40.4976" cy="162.599" rx="2.60254" ry="2.59842" fill="#F8F8FB"/>
<ellipse cx="87.3472" cy="162.599" rx="2.60254" ry="2.59842" fill="#F8F8FB"/>
<ellipse cx="56.1128" cy="84.6531" rx="2.60254" ry="2.59842" fill="#F8F8FB"/>
<ellipse cx="102.958" cy="84.6531" rx="2.60254" ry="2.59842" fill="#F8F8FB"/>
<ellipse cx="56.1128" cy="131.422" rx="2.60254" ry="2.59842" fill="#F8F8FB"/>
<ellipse cx="102.958" cy="131.422" rx="2.60254" ry="2.59842" fill="#F8F8FB"/>
<ellipse cx="56.1128" cy="100.238" rx="2.60254" ry="2.59842" fill="#F8F8FB"/>
<ellipse cx="102.958" cy="100.238" rx="2.60254" ry="2.59842" fill="#F8F8FB"/>
<ellipse cx="56.1128" cy="147.007" rx="2.60254" ry="2.59842" fill="#F8F8FB"/>
<ellipse cx="102.958" cy="147.007" rx="2.60254" ry="2.59842" fill="#F8F8FB"/>
<ellipse cx="56.1128" cy="115.845" rx="2.60254" ry="2.59842" fill="#F8F8FB"/>
<ellipse cx="102.958" cy="115.845" rx="2.60254" ry="2.59842" fill="#F8F8FB"/>
<ellipse cx="56.1128" cy="162.599" rx="2.60254" ry="2.59842" fill="#F8F8FB"/>
<ellipse cx="102.958" cy="162.599" rx="2.60254" ry="2.59842" fill="#F8F8FB"/>
<path d="M101.835 202.75C102.635 202.75 103.335 202.655 103.935 202.465C104.535 202.265 105.035 201.99 105.435 201.64C105.835 201.29 106.135 200.875 106.335 200.395C106.535 199.905 106.635 199.365 106.635 198.775C106.635 197.595 106.245 196.695 105.465 196.075C104.685 195.455 103.505 195.145 101.925 195.145H99.075V202.75H101.835ZM112.005 214H108.87C108.25 214 107.8 213.76 107.52 213.28L102.48 206.005C102.31 205.755 102.125 205.575 101.925 205.465C101.725 205.355 101.425 205.3 101.025 205.3H99.075V214H95.565V192.4H101.925C103.345 192.4 104.565 192.545 105.585 192.835C106.615 193.125 107.46 193.54 108.12 194.08C108.78 194.61 109.265 195.25 109.575 196C109.895 196.75 110.055 197.585 110.055 198.505C110.055 199.255 109.94 199.955 109.71 200.605C109.49 201.255 109.165 201.845 108.735 202.375C108.315 202.905 107.795 203.365 107.175 203.755C106.555 204.145 105.85 204.45 105.06 204.67C105.49 204.93 105.86 205.295 106.17 205.765L112.005 214ZM123.047 204.625C123.047 204.085 122.967 203.585 122.807 203.125C122.657 202.655 122.432 202.25 122.132 201.91C121.832 201.56 121.457 201.29 121.007 201.1C120.567 200.9 120.057 200.8 119.477 200.8C118.307 200.8 117.387 201.135 116.717 201.805C116.047 202.475 115.622 203.415 115.442 204.625H123.047ZM115.352 206.605C115.392 207.475 115.527 208.23 115.757 208.87C115.987 209.5 116.292 210.025 116.672 210.445C117.062 210.865 117.522 211.18 118.052 211.39C118.592 211.59 119.192 211.69 119.852 211.69C120.482 211.69 121.027 211.62 121.487 211.48C121.947 211.33 122.347 211.17 122.687 211C123.027 210.82 123.317 210.66 123.557 210.52C123.797 210.37 124.017 210.295 124.217 210.295C124.477 210.295 124.677 210.395 124.817 210.595L125.732 211.78C125.352 212.23 124.922 212.61 124.442 212.92C123.962 213.23 123.452 213.485 122.912 213.685C122.372 213.875 121.817 214.01 121.247 214.09C120.677 214.18 120.122 214.225 119.582 214.225C118.522 214.225 117.537 214.05 116.627 213.7C115.727 213.34 114.942 212.815 114.272 212.125C113.612 211.435 113.092 210.58 112.712 209.56C112.342 208.54 112.157 207.365 112.157 206.035C112.157 204.975 112.322 203.985 112.652 203.065C112.992 202.145 113.472 201.345 114.092 200.665C114.722 199.985 115.482 199.45 116.372 199.06C117.272 198.66 118.287 198.46 119.417 198.46C120.357 198.46 121.227 198.615 122.027 198.925C122.827 199.225 123.517 199.67 124.097 200.26C124.677 200.85 125.127 201.575 125.447 202.435C125.777 203.285 125.942 204.255 125.942 205.345C125.942 205.845 125.887 206.18 125.777 206.35C125.667 206.52 125.467 206.605 125.177 206.605H115.352ZM138.084 201.475C138.004 201.615 137.914 201.715 137.814 201.775C137.714 201.835 137.589 201.865 137.439 201.865C137.269 201.865 137.084 201.815 136.884 201.715C136.684 201.605 136.449 201.485 136.179 201.355C135.909 201.225 135.589 201.11 135.219 201.01C134.859 200.9 134.434 200.845 133.944 200.845C133.544 200.845 133.179 200.895 132.849 200.995C132.529 201.085 132.254 201.22 132.024 201.4C131.804 201.57 131.634 201.775 131.514 202.015C131.394 202.245 131.334 202.495 131.334 202.765C131.334 203.125 131.444 203.425 131.664 203.665C131.884 203.905 132.174 204.115 132.534 204.295C132.894 204.465 133.304 204.62 133.764 204.76C134.224 204.9 134.694 205.05 135.174 205.21C135.654 205.37 136.124 205.555 136.584 205.765C137.044 205.975 137.454 206.235 137.814 206.545C138.174 206.845 138.464 207.215 138.684 207.655C138.904 208.085 139.014 208.61 139.014 209.23C139.014 209.95 138.884 210.615 138.624 211.225C138.364 211.835 137.984 212.365 137.484 212.815C136.984 213.265 136.359 213.615 135.609 213.865C134.869 214.115 134.019 214.24 133.059 214.24C132.529 214.24 132.014 214.19 131.514 214.09C131.024 214 130.554 213.875 130.104 213.715C129.664 213.545 129.249 213.345 128.859 213.115C128.479 212.885 128.139 212.635 127.839 212.365L128.589 211.135C128.679 210.985 128.789 210.87 128.919 210.79C129.059 210.7 129.229 210.655 129.429 210.655C129.639 210.655 129.844 210.725 130.044 210.865C130.254 210.995 130.494 211.14 130.764 211.3C131.044 211.46 131.379 211.61 131.769 211.75C132.159 211.88 132.644 211.945 133.224 211.945C133.704 211.945 134.119 211.89 134.469 211.78C134.819 211.66 135.109 211.5 135.339 211.3C135.569 211.1 135.739 210.875 135.849 210.625C135.959 210.365 136.014 210.09 136.014 209.8C136.014 209.41 135.904 209.09 135.684 208.84C135.464 208.59 135.169 208.375 134.799 208.195C134.439 208.015 134.024 207.855 133.554 207.715C133.094 207.575 132.624 207.425 132.144 207.265C131.664 207.105 131.189 206.92 130.719 206.71C130.259 206.5 129.844 206.235 129.474 205.915C129.114 205.585 128.824 205.19 128.604 204.73C128.384 204.26 128.274 203.69 128.274 203.02C128.274 202.41 128.394 201.83 128.634 201.28C128.884 200.73 129.244 200.245 129.714 199.825C130.194 199.405 130.779 199.075 131.469 198.835C132.169 198.585 132.974 198.46 133.884 198.46C134.914 198.46 135.849 198.625 136.689 198.955C137.529 199.285 138.234 199.735 138.804 200.305L138.084 201.475ZM152.08 204.625C152.08 204.085 152 203.585 151.84 203.125C151.69 202.655 151.465 202.25 151.165 201.91C150.865 201.56 150.49 201.29 150.04 201.1C149.6 200.9 149.09 200.8 148.51 200.8C147.34 200.8 146.42 201.135 145.75 201.805C145.08 202.475 144.655 203.415 144.475 204.625H152.08ZM144.385 206.605C144.425 207.475 144.56 208.23 144.79 208.87C145.02 209.5 145.325 210.025 145.705 210.445C146.095 210.865 146.555 211.18 147.085 211.39C147.625 211.59 148.225 211.69 148.885 211.69C149.515 211.69 150.06 211.62 150.52 211.48C150.98 211.33 151.38 211.17 151.72 211C152.06 210.82 152.35 210.66 152.59 210.52C152.83 210.37 153.05 210.295 153.25 210.295C153.51 210.295 153.71 210.395 153.85 210.595L154.765 211.78C154.385 212.23 153.955 212.61 153.475 212.92C152.995 213.23 152.485 213.485 151.945 213.685C151.405 213.875 150.85 214.01 150.28 214.09C149.71 214.18 149.155 214.225 148.615 214.225C147.555 214.225 146.57 214.05 145.66 213.7C144.76 213.34 143.975 212.815 143.305 212.125C142.645 211.435 142.125 210.58 141.745 209.56C141.375 208.54 141.19 207.365 141.19 206.035C141.19 204.975 141.355 203.985 141.685 203.065C142.025 202.145 142.505 201.345 143.125 200.665C143.755 199.985 144.515 199.45 145.405 199.06C146.305 198.66 147.32 198.46 148.45 198.46C149.39 198.46 150.26 198.615 151.06 198.925C151.86 199.225 152.55 199.67 153.13 200.26C153.71 200.85 154.16 201.575 154.48 202.435C154.81 203.285 154.975 204.255 154.975 205.345C154.975 205.845 154.92 206.18 154.81 206.35C154.7 206.52 154.5 206.605 154.21 206.605H144.385ZM162.741 214.24C161.471 214.24 160.491 213.885 159.801 213.175C159.121 212.455 158.781 211.445 158.781 210.145V201.235H157.101C156.921 201.235 156.766 201.18 156.636 201.07C156.506 200.95 156.441 200.775 156.441 200.545V199.24L158.916 198.88L159.621 194.455C159.671 194.285 159.756 194.15 159.876 194.05C159.996 193.94 160.156 193.885 160.356 193.885H162.006V198.91H166.251V201.235H162.006V209.92C162.006 210.47 162.141 210.89 162.411 211.18C162.681 211.47 163.041 211.615 163.491 211.615C163.741 211.615 163.956 211.585 164.136 211.525C164.316 211.455 164.471 211.385 164.601 211.315C164.731 211.235 164.841 211.165 164.931 211.105C165.031 211.035 165.126 211 165.216 211C165.396 211 165.541 211.1 165.651 211.3L166.611 212.875C166.111 213.315 165.521 213.655 164.841 213.895C164.161 214.125 163.461 214.24 162.741 214.24ZM183.584 203.41C184.364 203.41 185.049 203.31 185.639 203.11C186.239 202.91 186.734 202.63 187.124 202.27C187.524 201.9 187.824 201.455 188.024 200.935C188.224 200.415 188.324 199.835 188.324 199.195C188.324 198.565 188.224 198 188.024 197.5C187.834 197 187.544 196.575 187.154 196.225C186.764 195.875 186.269 195.61 185.669 195.43C185.079 195.24 184.384 195.145 183.584 195.145H180.374V203.41H183.584ZM183.584 192.4C184.994 192.4 186.214 192.565 187.244 192.895C188.284 193.225 189.139 193.69 189.809 194.29C190.489 194.88 190.994 195.595 191.324 196.435C191.654 197.265 191.819 198.185 191.819 199.195C191.819 200.225 191.644 201.17 191.294 202.03C190.944 202.88 190.424 203.615 189.734 204.235C189.044 204.845 188.184 205.325 187.154 205.675C186.134 206.015 184.944 206.185 183.584 206.185H180.374V214H176.864V192.4H183.584ZM202.281 207.31C201.131 207.35 200.161 207.445 199.371 207.595C198.581 207.735 197.941 207.92 197.451 208.15C196.961 208.37 196.606 208.635 196.386 208.945C196.176 209.255 196.071 209.595 196.071 209.965C196.071 210.325 196.126 210.635 196.236 210.895C196.356 211.145 196.516 211.355 196.716 211.525C196.926 211.685 197.166 211.805 197.436 211.885C197.716 211.955 198.021 211.99 198.351 211.99C199.191 211.99 199.911 211.835 200.511 211.525C201.121 211.205 201.711 210.745 202.281 210.145V207.31ZM193.731 200.83C195.461 199.22 197.521 198.415 199.911 198.415C200.791 198.415 201.571 198.56 202.251 198.85C202.941 199.13 203.516 199.53 203.976 200.05C204.446 200.57 204.801 201.19 205.041 201.91C205.291 202.62 205.416 203.41 205.416 204.28V214H203.976C203.666 214 203.431 213.955 203.271 213.865C203.111 213.765 202.976 213.57 202.866 213.28L202.551 212.035C202.161 212.385 201.776 212.7 201.396 212.98C201.016 213.25 200.621 213.48 200.211 213.67C199.811 213.86 199.376 214 198.906 214.09C198.446 214.19 197.936 214.24 197.376 214.24C196.756 214.24 196.176 214.155 195.636 213.985C195.106 213.815 194.646 213.56 194.256 213.22C193.866 212.87 193.556 212.44 193.326 211.93C193.106 211.42 192.996 210.82 192.996 210.13C192.996 209.54 193.151 208.965 193.461 208.405C193.781 207.845 194.301 207.345 195.021 206.905C195.751 206.455 196.706 206.085 197.886 205.795C199.076 205.505 200.541 205.34 202.281 205.3V204.28C202.281 203.18 202.046 202.36 201.576 201.82C201.106 201.28 200.416 201.01 199.506 201.01C198.886 201.01 198.366 201.09 197.946 201.25C197.526 201.4 197.161 201.565 196.851 201.745C196.541 201.925 196.266 202.095 196.026 202.255C195.786 202.405 195.531 202.48 195.261 202.48C195.041 202.48 194.851 202.425 194.691 202.315C194.541 202.195 194.416 202.05 194.316 201.88L193.731 200.83ZM218.329 201.475C218.249 201.615 218.159 201.715 218.059 201.775C217.959 201.835 217.834 201.865 217.684 201.865C217.514 201.865 217.329 201.815 217.129 201.715C216.929 201.605 216.694 201.485 216.424 201.355C216.154 201.225 215.834 201.11 215.464 201.01C215.104 200.9 214.679 200.845 214.189 200.845C213.789 200.845 213.424 200.895 213.094 200.995C212.774 201.085 212.499 201.22 212.269 201.4C212.049 201.57 211.879 201.775 211.759 202.015C211.639 202.245 211.579 202.495 211.579 202.765C211.579 203.125 211.689 203.425 211.909 203.665C212.129 203.905 212.419 204.115 212.779 204.295C213.139 204.465 213.549 204.62 214.009 204.76C214.469 204.9 214.939 205.05 215.419 205.21C215.899 205.37 216.369 205.555 216.829 205.765C217.289 205.975 217.699 206.235 218.059 206.545C218.419 206.845 218.709 207.215 218.929 207.655C219.149 208.085 219.259 208.61 219.259 209.23C219.259 209.95 219.129 210.615 218.869 211.225C218.609 211.835 218.229 212.365 217.729 212.815C217.229 213.265 216.604 213.615 215.854 213.865C215.114 214.115 214.264 214.24 213.304 214.24C212.774 214.24 212.259 214.19 211.759 214.09C211.269 214 210.799 213.875 210.349 213.715C209.909 213.545 209.494 213.345 209.104 213.115C208.724 212.885 208.384 212.635 208.084 212.365L208.834 211.135C208.924 210.985 209.034 210.87 209.164 210.79C209.304 210.7 209.474 210.655 209.674 210.655C209.884 210.655 210.089 210.725 210.289 210.865C210.499 210.995 210.739 211.14 211.009 211.3C211.289 211.46 211.624 211.61 212.014 211.75C212.404 211.88 212.889 211.945 213.469 211.945C213.949 211.945 214.364 211.89 214.714 211.78C215.064 211.66 215.354 211.5 215.584 211.3C215.814 211.1 215.984 210.875 216.094 210.625C216.204 210.365 216.259 210.09 216.259 209.8C216.259 209.41 216.149 209.09 215.929 208.84C215.709 208.59 215.414 208.375 215.044 208.195C214.684 208.015 214.269 207.855 213.799 207.715C213.339 207.575 212.869 207.425 212.389 207.265C211.909 207.105 211.434 206.92 210.964 206.71C210.504 206.5 210.089 206.235 209.719 205.915C209.359 205.585 209.069 205.19 208.849 204.73C208.629 204.26 208.519 203.69 208.519 203.02C208.519 202.41 208.639 201.83 208.879 201.28C209.129 200.73 209.489 200.245 209.959 199.825C210.439 199.405 211.024 199.075 211.714 198.835C212.414 198.585 213.219 198.46 214.129 198.46C215.159 198.46 216.094 198.625 216.934 198.955C217.774 199.285 218.479 199.735 219.049 200.305L218.329 201.475ZM231.424 201.475C231.344 201.615 231.254 201.715 231.154 201.775C231.054 201.835 230.929 201.865 230.779 201.865C230.609 201.865 230.424 201.815 230.224 201.715C230.024 201.605 229.789 201.485 229.519 201.355C229.249 201.225 228.929 201.11 228.559 201.01C228.199 200.9 227.774 200.845 227.284 200.845C226.884 200.845 226.519 200.895 226.189 200.995C225.869 201.085 225.594 201.22 225.364 201.4C225.144 201.57 224.974 201.775 224.854 202.015C224.734 202.245 224.674 202.495 224.674 202.765C224.674 203.125 224.784 203.425 225.004 203.665C225.224 203.905 225.514 204.115 225.874 204.295C226.234 204.465 226.644 204.62 227.104 204.76C227.564 204.9 228.034 205.05 228.514 205.21C228.994 205.37 229.464 205.555 229.924 205.765C230.384 205.975 230.794 206.235 231.154 206.545C231.514 206.845 231.804 207.215 232.024 207.655C232.244 208.085 232.354 208.61 232.354 209.23C232.354 209.95 232.224 210.615 231.964 211.225C231.704 211.835 231.324 212.365 230.824 212.815C230.324 213.265 229.699 213.615 228.949 213.865C228.209 214.115 227.359 214.24 226.399 214.24C225.869 214.24 225.354 214.19 224.854 214.09C224.364 214 223.894 213.875 223.444 213.715C223.004 213.545 222.589 213.345 222.199 213.115C221.819 212.885 221.479 212.635 221.179 212.365L221.929 211.135C222.019 210.985 222.129 210.87 222.259 210.79C222.399 210.7 222.569 210.655 222.769 210.655C222.979 210.655 223.184 210.725 223.384 210.865C223.594 210.995 223.834 211.14 224.104 211.3C224.384 211.46 224.719 211.61 225.109 211.75C225.499 211.88 225.984 211.945 226.564 211.945C227.044 211.945 227.459 211.89 227.809 211.78C228.159 211.66 228.449 211.5 228.679 211.3C228.909 211.1 229.079 210.875 229.189 210.625C229.299 210.365 229.354 210.09 229.354 209.8C229.354 209.41 229.244 209.09 229.024 208.84C228.804 208.59 228.509 208.375 228.139 208.195C227.779 208.015 227.364 207.855 226.894 207.715C226.434 207.575 225.964 207.425 225.484 207.265C225.004 207.105 224.529 206.92 224.059 206.71C223.599 206.5 223.184 206.235 222.814 205.915C222.454 205.585 222.164 205.19 221.944 204.73C221.724 204.26 221.614 203.69 221.614 203.02C221.614 202.41 221.734 201.83 221.974 201.28C222.224 200.73 222.584 200.245 223.054 199.825C223.534 199.405 224.119 199.075 224.809 198.835C225.509 198.585 226.314 198.46 227.224 198.46C228.254 198.46 229.189 198.625 230.029 198.955C230.869 199.285 231.574 199.735 232.144 200.305L231.424 201.475ZM256.88 198.7L251.975 214H249.41C249.11 214 248.9 213.805 248.78 213.415L245.735 203.89C245.655 203.62 245.58 203.35 245.51 203.08C245.45 202.81 245.395 202.545 245.345 202.285C245.235 202.825 245.1 203.365 244.94 203.905L241.85 213.415C241.74 213.805 241.505 214 241.145 214H238.7L233.795 198.7H236.345C236.595 198.7 236.8 198.765 236.96 198.895C237.13 199.015 237.24 199.16 237.29 199.33L239.84 208.24C239.94 208.65 240.025 209.05 240.095 209.44C240.175 209.82 240.245 210.2 240.305 210.58C240.405 210.2 240.51 209.82 240.62 209.44C240.73 209.05 240.845 208.65 240.965 208.24L243.83 199.285C243.88 199.105 243.98 198.96 244.13 198.85C244.29 198.73 244.48 198.67 244.7 198.67H246.11C246.34 198.67 246.535 198.73 246.695 198.85C246.855 198.96 246.96 199.105 247.01 199.285L249.8 208.24C249.92 208.65 250.03 209.05 250.13 209.44C250.24 209.83 250.34 210.22 250.43 210.61C250.5 210.23 250.575 209.845 250.655 209.455C250.735 209.065 250.83 208.66 250.94 208.24L253.535 199.33C253.595 199.15 253.705 199 253.865 198.88C254.025 198.76 254.22 198.7 254.45 198.7H256.88ZM265.613 198.46C266.743 198.46 267.763 198.645 268.673 199.015C269.593 199.385 270.373 199.91 271.013 200.59C271.663 201.27 272.163 202.095 272.513 203.065C272.863 204.035 273.038 205.125 273.038 206.335C273.038 207.545 272.863 208.635 272.513 209.605C272.163 210.575 271.663 211.405 271.013 212.095C270.373 212.775 269.593 213.3 268.673 213.67C267.763 214.04 266.743 214.225 265.613 214.225C264.473 214.225 263.443 214.04 262.523 213.67C261.613 213.3 260.833 212.775 260.183 212.095C259.533 211.405 259.033 210.575 258.683 209.605C258.333 208.635 258.158 207.545 258.158 206.335C258.158 205.125 258.333 204.035 258.683 203.065C259.033 202.095 259.533 201.27 260.183 200.59C260.833 199.91 261.613 199.385 262.523 199.015C263.443 198.645 264.473 198.46 265.613 198.46ZM265.613 211.705C266.993 211.705 268.018 211.245 268.688 210.325C269.368 209.395 269.708 208.07 269.708 206.35C269.708 204.63 269.368 203.305 268.688 202.375C268.018 201.435 266.993 200.965 265.613 200.965C264.213 200.965 263.173 201.435 262.493 202.375C261.813 203.305 261.473 204.63 261.473 206.35C261.473 208.07 261.813 209.395 262.493 210.325C263.173 211.245 264.213 211.705 265.613 211.705ZM279.182 201.535C279.662 200.565 280.242 199.805 280.922 199.255C281.602 198.695 282.417 198.415 283.367 198.415C283.697 198.415 284.007 198.455 284.297 198.535C284.587 198.605 284.847 198.715 285.077 198.865L284.852 201.295C284.812 201.465 284.747 201.585 284.657 201.655C284.577 201.715 284.467 201.745 284.327 201.745C284.177 201.745 283.962 201.72 283.682 201.67C283.402 201.61 283.107 201.58 282.797 201.58C282.347 201.58 281.947 201.645 281.597 201.775C281.257 201.905 280.947 202.095 280.667 202.345C280.397 202.595 280.157 202.9 279.947 203.26C279.737 203.62 279.542 204.03 279.362 204.49V214H276.137V198.7H278.012C278.352 198.7 278.587 198.765 278.717 198.895C278.847 199.015 278.937 199.23 278.987 199.54L279.182 201.535ZM296.478 202.465C296.028 201.885 295.533 201.48 294.993 201.25C294.453 201.02 293.868 200.905 293.238 200.905C291.978 200.905 290.993 201.37 290.283 202.3C289.573 203.22 289.218 204.585 289.218 206.395C289.218 207.335 289.298 208.14 289.458 208.81C289.618 209.47 289.848 210.01 290.148 210.43C290.448 210.85 290.813 211.155 291.243 211.345C291.673 211.535 292.158 211.63 292.698 211.63C293.518 211.63 294.223 211.455 294.813 211.105C295.413 210.745 295.968 210.24 296.478 209.59V202.465ZM299.703 191.8V214H297.753C297.323 214 297.048 213.795 296.928 213.385L296.643 211.72C296.003 212.47 295.273 213.075 294.453 213.535C293.643 213.995 292.698 214.225 291.618 214.225C290.758 214.225 289.978 214.055 289.278 213.715C288.578 213.365 287.978 212.86 287.478 212.2C286.978 211.54 286.588 210.725 286.308 209.755C286.038 208.775 285.903 207.655 285.903 206.395C285.903 205.255 286.053 204.2 286.353 203.23C286.663 202.26 287.103 201.42 287.673 200.71C288.243 199.99 288.933 199.43 289.743 199.03C290.563 198.62 291.478 198.415 292.488 198.415C293.388 198.415 294.153 198.56 294.783 198.85C295.413 199.13 295.978 199.525 296.478 200.035V191.8H299.703Z" fill="#F8F8FB"/>
<defs>
<linearGradient id="paint0_linear_3116_15692" x1="274.617" y1="323.488" x2="399.439" y2="914.269" gradientUnits="userSpaceOnUse">
<stop stop-color="#004166"/>
<stop offset="1" stop-color="#004166" stop-opacity="0"/>
</linearGradient>
</defs>
</svg>
